<?xml version="1.0" encoding="UTF-8"?>
<svg id="Layer_1" data-name="Layer 1" xmlns="http://www.w3.org/2000/svg" viewBox="0 0 800 800">
  <defs>
    <style>
      .cls-1 {
        fill: #bfb6a8;
      }
    </style>
  </defs>
  <rect y="-.000000000000057" width="800" height="800" rx="78.129485496994675" ry="78.129485496994675"/>
  <path class="cls-1" d="M668.124997615814209,335.65000057220368c0-147.844122048854842-120.280875566959367-268.124997615814209-268.124997615814209-268.124997615814209S131.875002384185791,187.805878523348838,131.875002384185791,335.65000057220368c0,101.662275077914273,58.344005208969065,195.055576211260814,149.088234147930052,240.132741318703665,1.769634803295048,8.000832581899886,5.265966606998518,15.561977152727195,10.392523434734358,21.964803404996928l26.522920181942027,33.150970450307796c4.547397668457052,5.684236857414362,7.046320518779794,12.827090721511922,7.046320518779794,20.098655712699838v17.127826156902302h-21.449999809265137v64.34999942779541h214.499998092651367v-64.34999942779541h-21.449999809265137v-17.127826156902302c0-7.282284099674143,2.498943306636647-14.414418855285476,7.046340975093699-20.109374821186066l24.099092459964595-30.126504439449491c7.582541875171955-9.459449588586722,11.754566183471979-21.353486920263094,11.754566183471979-33.483467376518092v-2.713407301616826c79.493685873794675-48.541360041999724,128.69999885559082-135.596190486623527,128.69999885559082-228.914416947937752Zm-21.449999809265137,0c0,3.592865149021236-.203785799121761,7.164292081070016-.3646542516708,10.735719013118796-30.158702677535985,.032177781772589-57.303658452701711,17.942928440761534-69.465837147045022,46.310558098030015-6.649488485336406,15.508340697670974-21.299850465202326,25.943761022664148-37.48386321115504,28.174562966633857-.31101779661185-17.471001278972835-14.564527286720477-31.595840554619826-32.110644150352528-31.595840554619826-4.236379871845202,0-8.258254836082415,.868718282604277-11.969112003707778,2.359492614746159-1.619485459232237-5.984556001853889-4.879894594669167-11.250522608852407-9.330738461494548-15.315294463348437-.032157325458684-.772205393600416-.150149344062811-1.533671222400699-.150149344062811-2.316595724487343v-12.183596455001862c0-8.247515271282282,2.166446380424532-16.387798545074475,6.252676908206922-23.541371517658263l21.299850465202326-37.290816976833412c10.038608747863691-17.556835972118279,15.347472245121025-37.537520122527894,15.347472245121025-57.764866506004182,0-21.021000222206567,7.110655626011066-41.741701756286602,20.012861932182204-58.322546535682704,6.88543160991685-8.858852212333659,15.079330882454087-17.170723047161118,24.313556454944774-24.849818723964745,45.420381142139377,44.766137082672685,73.648580563831274,106.938960793399929,73.648580563831274,175.600414765071946Zm-194.29411038246144,34.534492328643864c-3.700097146511325-13.674370787143744-16.09821896543508-23.809492424011296-30.930887614822495-23.809492424011296-3.775212731170541,0-7.357358771705549,.772205393600416-10.724999904632568,1.973400146102904v-47.093482600116658c28.099488294601542-5.984556001853889,52.005514063930605-24.195605348968456,65.047109693050515-50.278796607208278,6.563694704818772-13.105951192665088,10.027889639377463-27.788470497989692,10.027889639377463-42.460270694828068v-5.426845287704054c0-27.745573607731785-18.629319597530412-52.455972324276445-45.313108232021477-60.081452002335027-17.524678646659595-4.997850814724188-29.761891100406501-21.22477579317092-29.761891100406501-39.446549362850419v-14.317875281810302c55.39463432645789,2.38095128803252,106.134598074340829,23.090928599547624,146.235396610736643,56.252628386497236-9.480887805557359,8.129553937149467-17.921490223789078,16.913321249294313-25.171576085376728,26.23335083046004-15.830118515395952,20.334598837280282-24.5388213836668,45.720669602107591-24.5388213836668,71.492843063735563,0,16.505770107364697-4.332892760849063,32.79705576343531-12.516072924900072,47.136379490375475l-21.299850465202326,37.280097868347184c-5.941659111595072,10.38180432624813-9.084076228427875,22.21146563806542-9.084076228427875,34.180577641773198v6.005994218826345c-4.236379871845202,0-8.258254836082415,.868718282604277-11.969112003707778,2.359492614746159Zm-63.1058873287202-280.9413641147612v14.317875281810302c0,27.745573607730876,18.629319597530412,52.455967210197741,45.313108232021477,60.081446888256323,17.524678646659595,4.997855928801982,29.761891100406501,21.22477579317092,29.761891100406501,39.446554476929123v5.426845287704054c0,11.357775062656401-2.681249976158142,22.72626923379903-7.76488945732126,32.872130435466715-9.395094025039725,18.779468941593223-26.072472149753594,32.250074385929111-45.860110065841582,37.784182355594567v-7.872162367439159c0-17.739142641639774-14.435857072257932-32.174999713897705-32.174999713897705-32.174999713897705s-32.174999713897705,14.435857072257932-32.174999713897705,32.174999713897705v8.451301070404043c-10.178018527126369-3.721576276111591-18.425554254722556-11.840400876617423-21.996981186771336-22.565400781249991-7.882861019611482-23.637904862976029-29.912019988155407-39.510899812316893-54.815475167179102-39.510899812316893h-6.456442251014778c-17.320872391223929,0-32.893568652439171-9.620328269291349-40.637019892787976-25.10722052183155-3.131708236503073-6.284854689979511-4.794080357837629-13.320456100273077-4.794080357837629-20.323879728794054v-2.56327841386792c42.899999618530273-47.082743035316525,103.742927677822081-77.50956917624444,171.599998474121094-80.437494170665559Zm-232.303496297836318,204.407768231963928c33.150970450305977-16.806068795490319,74.356430393886512-14.661081088352148,105.233702009963963,5.930919546794939l13.095232084178861,8.730141085243304c10.928765247440424,7.271564991187915,17.449563062000379,19.46590101098991,17.449563062000379,32.593290420627454,0,17.406666171741563-11.679532424068384,32.893568652439171-28.410526547527297,37.676929901790572l-4.043333637523574,1.147578753757443c-25.096480957031417,7.175011189556244-42.621139147377107,30.405364910603566-42.621139147377107,56.499275277329616,0,8.708702868269029-3.067352672958805,17.202900828931888-8.64434730472567,23.884587552354787l-12.301578245449491,14.768313085842237c-27.60615360031079-40.33670074834663-43.404073877620249-88.652836774253046-43.404073877620249-139.231932069586946,0-14.317865053653804,1.297728097820254-28.335451875495892,3.646501604080186-41.999103554153407Zm52.970775920010055,198.873665376378085l15.561977152729014-18.672236944104952c8.783767312144846-10.531933213995217,13.620744560241292-23.895306660841015,13.620744560241292-37.612574338243576,0-16.570105214595969,11.132551046562185-31.327740104581608,27.059182450961998-35.87513777303775l4.043333637523574-1.147578753757443c25.890145023918194-7.389516097164233,43.972503700256311-31.3706165385247,43.972503700256311-58.301087862396344,0-20.323879728794054-10.092224746608736-39.178423342418682-26.994826887416821-50.45040462455745l-13.095232084178861-8.730141085243304c-20.763608652496259-13.84595834817901-44.927036219692127-21.160399773311838-69.884107397460866-21.160399773311838-14.114099710845949,0-28.067330969142859,2.649072194385553-41.35559905948594,7.293003208160371,7.850703694151889-27.434555811119026,20.334598837280282-52.906430584621376,36.561518701648311-75.546906037902772,1.061774745083312,3.367651361083517,2.284428170871251,6.670947158622766,3.860996283530767,9.824103840255702,11.400682181072625,22.812073242473161,34.319997649193283,36.979799180221562,59.813331095981994,36.979799180221562h6.456442251014778c15.65851049804678,0,29.504468846225791,9.984972292804741,34.459417656612459,24.839099615478517,6.520797814559955,19.573133008479999,22.812083470630569,33.665774046039587,42.353018241024074,37.987947698402422v226.747950111199316h-1.780353911781276l-16.355620763301886-89.961304436874343c-2.938631317711042-16.226930092525436-17.063450137043219-28.013694514083909-33.558501135921688-28.013694514083909-18.800927614879583,0-34.105502969741792,15.304554898546485-34.105502969741792,34.105502969741792v6.853274284458166c0,1.887585909269546,.160868452549039,3.775212731168722,.461167140674661,5.609162185381138l15.27239757308962,91.677302785112261c-25.589846335792572-14.875585995960137-47.962190654563528-34.084023840143345-66.366286235999723-56.445679734897567Zm286.582719424151946,218.500434839916124h-171.599998474121094v-21.449999809265137h171.599998474121094v21.449999809265137Zm21.449999809265137-143.747172412586224c0,7.282284099674143-2.498943306636647,14.414418855285476-7.046340975093699,20.109374821186066l-24.099092459964595,30.126504439449491c-7.582541875171955,9.459449588583084-11.754566183471979,21.353486920259456-11.754566183471979,33.483467376518092v17.127826156902302h-128.69999885559082v-17.127826156902302c0-12.129980456258636-4.172024308300024-24.024017787935009-11.754607096099789-33.504905593490548l-26.522920181942027-33.150970450307796c-3.421277587985969-4.279256305788294-5.716435095500856-9.395094025039725-6.617331159877722-14.81123043241314l-19.294272537326833-115.787073440933455c-.107252453803994-.675672048284468-.160868452549039-1.362104117681156-.160868452549039-2.059214382934442v-6.853274284458166c0-6.981985411548521,5.673517748928134-12.655503160476655,12.655503160476655-12.655503160476655,6.123965781116567,0,11.368494171142629,4.375810107419966,12.462456926155028,10.392543891048263l19.562393443679866,107.582455059909989h41.119645706748997V271.30000114440827c0-5.909481329822484,4.815518574810085-10.724999904632568,10.724999904632568-10.724999904632568s10.724999904632568,4.815518574810085,10.724999904632568,10.724999904632568v257.39999771118255h21.449999809265137v-150.149998664856867c0-5.909481329822484,4.81553903112399-10.724999904632568,10.724999904632568-10.724999904632568s10.724999904632568,4.815518574810085,10.724999904632568,10.724999904632568v150.149998664856867h21.449999809265137v-128.69999885559173c0-5.909481329822484,4.81553903112399-10.724999904632568,10.724999904632568-10.724999904632568s10.724999904632568,4.815518574810085,10.724999904632568,10.724999904632568v128.69999885559173h21.449999809265137v-107.249999046325684c0-5.909460873510398,4.81553903112399-10.724999904632568,10.724999904632568-10.724999904632568s10.724999904632568,4.815539031122171,10.724999904632568,10.724999904632568v145.827825012493122Zm21.449999809265137-28.206761204721261v-96.632231139181386c25.064303175258829-2.262959269428393,47.114941273403019-17.900011094188812,57.421650471305838-41.945467099095367,8.258254836082415-19.262094755554244,26.855417108154143-31.810345462226906,47.683340411567769-32.539653965568505-9.191308225917965,68.961752659798549-47.436678178501097,131.477761720751914-105.104990882873608,171.117352203845257Z"/>
</svg>