<?xml version="1.0" standalone="no"?>
<!DOCTYPE svg PUBLIC "-//W3C//DTD SVG 20010904//EN"
 "http://www.w3.org/TR/2001/REC-SVG-20010904/DTD/svg10.dtd">
<svg version="1.0" xmlns="http://www.w3.org/2000/svg"
 width="265.000000pt" height="265.000000pt" viewBox="0 0 265.000000 265.000000"
 preserveAspectRatio="xMidYMid meet">
<metadata>
Created by potrace 1.14, written by Peter Selinger 2001-2017
</metadata>
<g transform="translate(0.000000,265.000000) scale(0.100000,-0.100000)"
fill="#000000" stroke="none">
<path d="M1275 2550 c6 -9 -11 -12 -77 -13 -15 0 -25 -4 -22 -9 5 -8 -31 -13
-71 -10 -16 2 -17 0 -5 -8 12 -8 10 -10 -10 -11 -14 -1 -31 -2 -37 -2 -7 1
-10 -3 -7 -8 5 -8 -19 -14 -41 -9 -5 1 -7 -2 -3 -6 4 -4 -19 -21 -52 -37 -54
-28 -66 -42 -60 -72 1 -5 -1 -7 -5 -3 -4 4 -13 1 -20 -6 -7 -7 -24 -12 -37
-11 -24 2 -48 -16 -48 -35 0 -6 -5 -8 -11 -4 -12 7 -102 -85 -125 -127 -12
-25 -12 -28 8 -41 19 -13 26 -9 96 62 42 41 80 74 85 72 4 -1 5 2 2 8 -4 6
-14 9 -24 6 -9 -4 -5 2 9 13 14 11 27 17 30 15 2 -3 -2 -9 -10 -14 -13 -8 -12
-10 3 -10 10 0 17 8 17 19 0 11 4 23 10 26 6 3 7 -1 4 -9 -3 -9 -1 -16 5 -16
6 0 11 10 12 23 0 12 3 17 5 10 3 -7 12 -9 20 -6 7 3 11 10 7 17 -4 6 2 4 12
-4 10 -8 16 -10 12 -4 -6 10 20 29 32 24 2 -1 7 4 11 11 6 8 13 2 24 -19 18
-35 22 -77 6 -67 -6 4 -8 11 -5 16 4 5 1 9 -5 9 -6 0 -15 10 -20 23 -8 20 -9
20 -10 2 -1 -25 -24 -57 -35 -47 -5 4 -5 1 -1 -6 5 -7 10 -11 13 -8 4 3 20
-22 37 -57 17 -34 36 -62 43 -62 6 0 15 -4 20 -9 4 -5 3 -6 -3 -3 -7 4 -17 0
-24 -8 -6 -7 -18 -11 -26 -8 -10 4 -12 0 -7 -13 4 -12 3 -15 -5 -10 -7 4 -12
2 -12 -3 0 -6 -7 -11 -16 -11 -8 0 -13 -4 -9 -10 3 -5 -6 -17 -20 -26 -13 -9
-22 -20 -19 -25 3 -5 0 -8 -8 -7 -7 2 -12 -3 -10 -10 1 -8 -2 -11 -9 -6 -8 5
-10 2 -6 -8 3 -9 -4 -26 -16 -39 -12 -13 -22 -27 -22 -30 0 -4 -3 -10 -7 -14
-4 -4 -4 -13 -2 -20 3 -7 1 -16 -5 -20 -6 -3 -14 1 -17 9 -3 9 -10 13 -15 10
-5 -3 -9 0 -9 7 0 7 -3 10 -6 6 -3 -3 -16 -2 -29 3 -15 6 -27 4 -34 -3 -10 -9
-12 -9 -9 3 2 8 8 18 13 23 6 4 1 6 -10 5 -37 -3 -56 2 -50 12 3 6 -1 7 -9 4
-9 -3 -16 -1 -16 5 0 6 4 11 10 11 5 0 2 8 -8 18 -9 11 -21 17 -25 14 -5 -2
-3 5 5 17 7 12 16 21 20 21 3 0 5 16 3 35 -2 24 0 33 8 28 7 -4 6 1 -2 10 -18
22 -26 21 -50 -4 -21 -23 -51 -31 -68 -17 -7 6 -14 5 -18 -2 -4 -6 -15 -8 -25
-5 -10 3 -21 1 -25 -5 -3 -6 -12 -7 -18 -3 -7 4 -6 0 2 -10 9 -12 10 -17 2
-17 -7 0 -9 -4 -6 -10 3 -5 0 -10 -7 -10 -10 0 -10 -2 -1 -8 13 -8 14 -52 1
-52 -13 0 -9 -28 5 -33 9 -4 9 -6 0 -6 -7 -1 -13 -6 -13 -12 0 -5 4 -8 8 -5 4
2 8 -11 8 -30 0 -19 -4 -34 -8 -34 -4 0 -5 -9 -3 -20 3 -14 0 -18 -8 -13 -55
34 -104 71 -149 115 -29 29 -56 51 -61 50 -4 -1 -7 3 -7 9 0 22 -65 148 -76
148 -17 1 -24 -25 -11 -38 8 -8 8 -11 -2 -11 -20 0 -8 -147 19 -235 26 -82 40
-112 70 -143 11 -12 18 -27 14 -34 -4 -6 -3 -8 3 -5 15 9 41 -24 70 -85 13
-29 31 -61 40 -70 8 -9 12 -22 8 -28 -3 -6 -1 -9 6 -8 8 2 24 -28 41 -76 26
-75 65 -146 80 -146 4 0 4 -7 1 -17 -4 -10 -2 -14 4 -10 5 3 10 1 11 -6 6 -68
9 -87 15 -93 18 -18 5 -25 -15 -8 -22 19 -23 19 -8 -1 8 -11 21 -24 28 -28 7
-5 10 -12 7 -17 -3 -4 -1 -20 5 -34 8 -21 7 -26 -6 -26 -9 0 -12 5 -8 12 5 7
3 8 -6 3 -10 -6 -10 -11 4 -20 14 -11 15 -14 1 -25 -11 -9 -15 -34 -15 -100 0
-83 -2 -90 -29 -119 -16 -17 -36 -31 -45 -31 -29 0 -17 -51 14 -58 8 -2 12 0
8 4 -4 4 -2 14 5 22 10 13 9 14 -10 3 -37 -19 -26 3 17 38 27 22 40 27 40 17
0 -8 -6 -17 -12 -19 -10 -4 -10 -7 -1 -14 8 -5 12 -30 12 -59 -1 -27 0 -53 2
-59 4 -17 -12 -45 -27 -45 -8 0 -14 -4 -14 -10 0 -17 -32 -48 -45 -44 -16 6
-27 -38 -19 -71 5 -20 9 -23 20 -14 8 6 11 15 8 20 -3 5 -2 9 3 9 4 0 37 27
72 60 36 33 68 60 73 60 4 0 8 13 8 28 0 31 41 79 59 68 5 -4 13 -1 17 5 5 8
3 9 -6 4 -9 -5 -11 -4 -6 4 4 6 12 9 17 5 5 -3 7 -10 4 -15 -4 -5 -2 -9 2 -9
5 0 14 -9 21 -21 10 -16 11 -24 1 -35 -9 -12 -9 -13 3 -9 8 3 21 -2 29 -11 8
-10 9 -15 2 -11 -7 5 -9 0 -6 -14 4 -16 8 -17 14 -7 7 11 9 11 9 0 0 -7 7 -20
16 -29 8 -9 13 -22 10 -29 -3 -9 1 -11 12 -7 9 3 14 3 10 -2 -4 -4 0 -14 10
-22 9 -8 12 -12 6 -9 -6 3 -11 -1 -11 -9 0 -8 4 -12 9 -9 5 3 20 -7 33 -22 18
-21 21 -30 12 -36 -7 -5 3 -6 21 -3 28 5 32 2 33 -17 1 -13 0 -27 -1 -33 -1
-5 2 -7 6 -2 10 10 45 -23 37 -36 -3 -5 -1 -7 5 -3 6 3 17 0 24 -7 15 -15 53
-16 65 -2 5 4 2 5 -5 1 -7 -4 -12 -4 -11 1 1 4 0 10 -1 13 -7 19 -7 46 0 64 6
18 4 22 -11 22 -12 0 -15 -4 -9 -10 14 -14 12 -26 -4 -26 -8 0 -22 9 -30 21
-9 13 -19 18 -28 13 -7 -4 -10 -4 -6 1 4 4 3 16 -3 26 -9 18 -2 24 24 20 5 -1
6 3 2 8 -3 6 -13 7 -22 4 -12 -5 -14 -3 -8 8 12 18 14 49 3 43 -4 -3 -8 0 -8
5 0 6 5 11 11 11 6 0 7 6 2 12 -11 18 -12 88 -2 88 5 0 9 -4 9 -10 0 -5 5 -10
10 -10 6 0 5 8 -2 19 -7 11 -15 18 -19 15 -4 -2 -6 4 -5 14 0 9 8 20 16 24 13
6 13 7 0 7 -18 1 -24 62 -6 73 8 5 7 8 -3 8 -11 0 -11 3 0 17 10 11 10 14 2 9
-8 -4 -13 -1 -13 9 0 10 5 13 13 9 9 -6 9 -4 -1 8 -9 11 -10 18 -2 23 5 3 10
1 10 -6 0 -7 7 -4 15 7 8 10 15 16 15 12 0 -4 18 -1 40 7 28 10 41 11 46 3 4
-7 2 -8 -4 -4 -16 9 -15 -7 0 -22 7 -7 10 -12 8 -13 -3 0 -13 -2 -23 -4 -12
-2 -17 1 -14 9 3 7 -1 13 -8 13 -10 0 -11 -5 -4 -19 6 -10 14 -16 20 -13 5 4
9 1 9 -5 0 -6 4 -9 8 -6 4 2 8 -6 8 -20 0 -13 -4 -24 -8 -24 -4 0 -8 -5 -8
-11 0 -5 3 -8 8 -5 4 2 8 -15 8 -40 1 -27 -2 -41 -9 -37 -6 4 -7 1 -1 -8 13
-21 13 -113 0 -121 -7 -5 -6 -8 4 -8 13 0 13 -1 0 -10 -10 -6 -11 -10 -2 -10
6 0 12 -7 12 -15 0 -8 -6 -15 -12 -15 -8 0 -9 -3 -3 -8 18 -13 15 -31 -7 -38
-21 -6 -21 -6 3 -20 13 -7 19 -13 13 -14 -7 0 -14 -7 -17 -14 -4 -11 -1 -13
11 -10 9 3 6 -2 -8 -11 -21 -13 -22 -15 -5 -13 14 2 20 -3 21 -20 1 -12 -3
-25 -8 -28 -4 -3 -6 -10 -3 -15 4 -5 2 -9 -4 -9 -6 0 -3 -15 7 -34 9 -19 20
-32 24 -29 5 2 8 -1 8 -7 0 -7 7 -10 15 -6 16 6 39 -26 27 -38 -3 -4 2 -4 12
0 13 5 17 4 13 -3 -4 -6 0 -14 9 -17 10 -4 13 -2 8 7 -6 8 -3 8 9 -1 9 -8 47
-30 84 -49 56 -29 75 -34 111 -30 25 3 47 9 51 14 3 6 14 9 24 7 9 -1 15 1 13
5 -2 3 12 17 31 30 19 12 32 17 28 9 -3 -7 1 -4 9 6 9 11 16 17 16 13 0 -5 6
-3 13 3 6 6 21 18 32 26 11 9 14 13 8 9 -9 -4 -11 -1 -7 10 5 13 9 13 22 3 10
-8 13 -9 9 -1 -4 6 0 18 8 26 11 12 12 16 2 20 -6 2 2 11 19 20 23 12 34 13
43 4 8 -8 11 -6 11 11 0 12 5 22 11 22 5 0 7 4 4 10 -4 7 2 7 19 0 19 -7 25
-6 23 3 -1 7 4 11 11 9 8 -1 11 1 8 6 -7 11 5 26 34 40 15 7 17 10 5 7 -15 -5
-17 -3 -8 6 6 6 9 18 6 25 -3 8 1 14 8 14 19 1 59 35 59 50 0 7 7 10 14 7 10
-4 13 -1 9 8 -3 8 2 18 11 21 9 3 13 10 10 15 -3 5 2 12 10 15 9 3 13 10 11
15 -3 4 3 19 15 31 34 39 45 54 48 69 2 7 8 17 14 20 5 3 9 9 9 13 -3 24 3 26
32 7 17 -11 32 -26 33 -33 1 -7 6 -24 11 -38 6 -14 8 -29 5 -34 -3 -5 0 -6 7
-2 7 5 43 -23 93 -73 45 -44 83 -79 84 -78 2 1 -1 20 -6 42 -5 22 -8 83 -8
135 2 88 -10 140 -30 140 -4 0 -21 12 -37 27 -29 27 -30 31 -30 113 0 69 -3
88 -18 103 -19 19 -16 65 5 78 6 4 5 8 -3 11 -11 4 -11 8 -3 19 6 8 10 22 8
32 -1 12 2 17 10 14 7 -3 13 1 13 8 0 7 -7 11 -16 8 -11 -3 -10 0 3 11 11 9
14 16 7 16 -7 0 -9 5 -4 13 4 6 8 19 10 27 1 8 12 24 25 36 22 19 58 75 58 89
0 4 -7 1 -17 -6 -15 -13 -15 -12 -5 8 16 30 15 38 -3 23 -8 -7 -15 -18 -15
-25 0 -7 -16 -27 -35 -44 -19 -17 -35 -35 -35 -40 0 -5 -9 -8 -20 -6 -11 2
-20 -1 -20 -6 0 -6 -4 -7 -10 -4 -5 3 -10 2 -10 -3 0 -6 -7 -13 -16 -16 -8 -3
-12 -2 -9 4 3 6 -1 7 -9 4 -9 -3 -13 -11 -9 -18 4 -6 -1 -5 -11 3 -13 11 -16
11 -14 1 2 -7 -3 -15 -10 -17 -8 -3 -10 2 -7 14 4 11 1 9 -6 -4 -11 -21 -13
-22 -25 -5 -12 16 -12 16 -11 -3 1 -12 -4 -20 -13 -20 -8 0 -21 -4 -27 -8 -7
-5 -13 -6 -13 -2 0 3 -10 1 -22 -6 -18 -10 -20 -9 -14 7 6 18 5 18 -8 1 -10
-13 -21 -16 -40 -11 -15 3 -23 11 -19 18 4 8 2 7 -7 -1 -12 -11 -26 -9 -80 14
-8 3 -23 5 -32 4 -10 -1 -18 2 -18 7 0 6 -10 8 -22 6 -21 -4 -22 -4 -3 5 29
14 47 13 40 -1 -4 -7 0 -5 9 6 8 10 22 16 30 13 9 -4 18 -2 21 3 4 6 16 10 29
10 12 0 26 3 30 7 3 4 17 8 29 10 46 6 107 26 107 35 0 5 -10 6 -22 3 -45 -13
-57 -16 -80 -20 -24 -5 -88 -19 -175 -40 -29 -7 -53 -10 -53 -6 0 4 75 26 168
49 92 22 147 40 122 38 -25 -2 -96 -15 -159 -30 -129 -30 -135 -30 -125 -14 4
7 3 8 -5 4 -6 -4 -8 -12 -5 -18 5 -7 -2 -9 -22 -4 -23 5 -26 4 -14 -4 12 -9
10 -11 -12 -7 -16 2 -25 0 -21 -6 3 -5 0 -7 -8 -5 -8 3 -13 14 -11 24 3 18 3
18 -12 -1 -8 -11 -16 -15 -16 -9 0 17 72 91 107 108 17 8 69 27 115 40 158 47
223 69 211 73 -6 2 -37 -4 -70 -13 -32 -10 -62 -19 -68 -20 -152 -37 -220 -70
-287 -137 -23 -23 -34 -31 -23 -17 42 55 133 126 165 128 3 1 12 3 20 6 8 2
64 18 124 35 60 17 114 36 120 42 8 9 5 10 -14 5 -14 -4 -33 -9 -42 -11 -10
-3 -26 -7 -35 -10 -10 -2 -29 -7 -42 -11 -18 -6 -22 -4 -16 6 5 9 4 11 -4 6
-6 -4 -9 -11 -6 -16 6 -10 -62 -23 -77 -14 -7 5 -8 3 -4 -5 5 -8 3 -11 -5 -10
-17 4 -95 -36 -129 -65 -22 -19 -23 -19 -9 -1 45 55 53 64 62 58 6 -3 7 -2 4
4 -9 14 80 76 98 69 8 -3 14 -2 14 2 -3 19 2 23 16 12 13 -11 14 -10 9 3 -4
12 2 18 23 23 15 4 34 11 41 17 12 9 17 -3 12 -28 -1 -5 2 -6 7 -2 4 5 8 16 8
25 0 10 7 16 18 16 9 -1 17 2 17 7 0 5 5 9 11 9 5 0 7 -6 4 -12 -4 -7 0 -5 9
6 8 10 26 19 39 20 14 0 23 4 20 9 -2 4 -1 7 4 8 4 0 17 3 28 6 11 2 28 5 38
6 9 1 17 7 17 13 0 16 36 24 50 10 8 -8 10 -7 5 6 -5 14 -2 16 15 13 18 -4 20
-2 9 11 -6 8 -9 17 -5 21 3 3 6 1 6 -5 0 -15 20 -12 38 6 16 14 35 6 26 -11
-4 -7 -3 -8 1 -4 5 4 10 15 11 25 2 9 8 18 13 20 6 2 11 13 11 24 0 17 3 18
14 9 11 -10 20 -10 38 0 41 22 188 143 188 154 0 4 7 13 15 22 9 8 14 17 12
19 -2 2 -35 -27 -73 -64 -63 -61 -181 -145 -172 -123 1 5 39 36 83 69 94 71
121 98 169 172 20 30 36 50 36 45 0 -6 -9 -23 -20 -40 -24 -36 -25 -46 -5 -39
8 4 15 13 15 21 0 8 3 12 8 10 4 -3 8 6 9 20 0 14 6 30 12 36 12 12 9 -125 -4
-155 -5 -12 -3 -18 6 -18 9 0 8 -4 -3 -12 -9 -7 -18 -22 -20 -33 -2 -11 -10
-19 -17 -17 -7 1 -10 -2 -6 -8 6 -10 -26 -72 -51 -97 -8 -9 -11 -4 -12 18 0
19 3 27 10 23 7 -5 8 -2 2 7 -5 8 -14 30 -19 49 l-11 35 -24 -42 c-13 -24 -28
-43 -34 -43 -5 0 -7 -3 -3 -6 9 -9 -54 -74 -66 -67 -6 3 -7 1 -3 -5 3 -6 -3
-13 -14 -17 -11 -3 -20 -10 -20 -15 0 -12 -75 -51 -84 -45 -3 3 -4 2 -1 -2 6
-8 -31 -27 -129 -66 -82 -32 -89 -52 -8 -22 73 28 195 91 219 114 12 12 26 21
30 21 4 0 21 14 36 30 16 17 32 30 37 30 4 0 15 16 24 35 19 39 27 45 19 16
-19 -74 -195 -200 -362 -262 -34 -12 -61 -26 -61 -30 0 -5 30 3 68 17 37 15
75 27 84 28 9 0 15 3 12 7 -5 9 25 21 37 13 5 -3 9 -1 9 5 0 6 13 17 29 25 15
8 39 24 52 35 66 56 87 70 93 63 4 -4 6 0 4 8 -2 8 3 14 10 12 8 -1 11 1 8 6
-3 4 4 21 14 37 17 26 19 27 17 7 -1 -12 -4 -22 -7 -22 -3 0 -6 -8 -6 -17 -1
-10 -5 -31 -9 -47 -6 -21 -5 -27 3 -22 8 5 10 2 6 -8 -3 -9 -10 -13 -15 -10
-5 3 -14 -6 -20 -20 -7 -14 -16 -23 -20 -20 -5 3 -6 -2 -3 -11 4 -10 1 -14 -7
-12 -8 2 -11 2 -7 0 4 -2 4 -11 1 -19 -6 -16 -32 -19 -34 -4 -1 6 -3 15 -4 20
-1 6 -3 13 -4 18 -1 4 -15 -15 -32 -42 -41 -65 -74 -93 -172 -143 -92 -48 -78
-59 17 -13 65 31 128 82 158 127 10 16 18 24 18 18 0 -19 -72 -100 -113 -127
-23 -15 -65 -37 -94 -49 -29 -12 -51 -25 -48 -29 7 -12 111 35 168 76 26 19
53 34 60 34 9 0 8 3 -2 9 -9 6 -10 11 -2 15 6 4 11 4 12 -1 0 -4 5 3 10 16 14
35 20 20 9 -20 -11 -37 -3 -96 10 -82 5 4 10 26 12 48 2 24 10 45 22 54 40 30
99 145 64 125 -7 -4 -1 6 14 22 109 115 135 156 162 247 10 34 11 47 3 47 -7
0 -5 5 3 10 13 9 13 10 0 10 -11 0 -12 2 -2 8 15 10 10 141 -8 187 l-11 30
-45 -86 c-33 -63 -62 -103 -110 -149 -39 -37 -71 -59 -80 -56 -8 3 -13 0 -11
-7 1 -7 -6 -11 -15 -11 -10 1 -15 -2 -13 -7 3 -4 -3 -13 -14 -18 -25 -14 -31
-14 -31 0 0 5 6 7 13 3 8 -5 8 -2 -2 9 -12 16 -8 22 12 18 5 -1 6 3 2 9 -3 6
-10 8 -15 5 -5 -3 -9 3 -9 12 0 10 -2 30 -4 46 -2 15 0 27 6 27 5 0 3 8 -4 17
-10 11 -10 14 -1 9 6 -4 12 -2 12 3 0 6 -4 11 -9 11 -5 0 -12 7 -15 16 -5 12
-2 15 10 10 13 -5 14 -4 6 7 -7 8 -9 17 -5 20 3 4 -1 7 -10 7 -10 0 -14 5 -11
15 6 16 -2 18 -50 15 -19 -1 -26 2 -21 10 6 9 2 9 -13 1 -27 -14 -35 -14 -26
2 6 9 4 9 -8 -1 -14 -11 -20 -8 -42 21 -14 19 -26 37 -26 41 0 4 -9 16 -20 28
-16 17 -17 24 -7 37 10 14 10 14 -3 4 -12 -9 -19 -7 -36 12 -12 13 -19 27 -16
30 3 3 -3 5 -12 5 -11 0 -16 5 -13 14 3 8 -1 13 -11 12 -10 -1 -16 6 -16 16 1
10 -2 16 -5 13 -4 -2 -39 19 -77 46 -38 28 -79 55 -92 60 -13 5 -21 13 -18 18
4 5 -3 7 -14 4 -11 -3 -20 0 -20 6 0 6 -9 11 -20 11 -11 0 -20 5 -20 11 0 6
-6 9 -14 6 -7 -3 -18 -1 -23 4 -8 8 -24 13 -70 23 -7 1 -15 5 -19 8 -3 4 -12
4 -20 1 -8 -3 -14 -1 -14 4 0 5 -19 7 -42 5 -32 -2 -39 -1 -28 7 8 6 10 11 5
11 -6 0 -16 -5 -23 -12 -9 -9 -12 -9 -12 0 0 7 -5 12 -11 12 -5 0 -7 -4 -4
-10 4 -6 -5 -10 -19 -10 -14 0 -26 5 -26 10 0 6 -5 10 -11 10 -5 0 -7 -4 -4
-10z m24 -111 c4 -12 1 -12 -15 1 -18 14 -18 14 -5 -2 15 -19 31 -15 31 8 0
18 5 18 38 -3 26 -17 26 -17 13 0 -8 10 -9 17 -3 17 6 0 18 -10 27 -22 l17
-23 -7 25 c-6 24 -5 24 9 6 19 -23 4 -39 -29 -30 -17 4 -16 3 3 -9 12 -7 20
-16 17 -19 -7 -6 -13 -32 -14 -57 -1 -21 -15 -4 -17 22 -2 12 -6 34 -11 50 -8
27 -8 27 -21 6 -8 -12 -9 -18 -3 -14 6 3 11 1 11 -4 0 -19 -39 -12 -50 9 -17
33 -47 24 -41 -12 0 -5 -3 -8 -9 -8 -5 0 -10 -5 -10 -11 0 -5 4 -8 8 -5 5 3 8
-9 7 -27 -3 -65 32 -106 62 -72 5 4 3 5 -3 2 -7 -4 -17 0 -24 8 -7 8 -9 15 -4
15 16 0 39 -19 39 -32 0 -12 10 -14 45 -9 6 0 9 4 8 9 -2 4 2 7 7 7 6 0 9 -4
7 -8 -1 -4 5 -10 13 -13 8 -4 15 -11 15 -17 0 -5 -9 -2 -20 8 -11 10 -20 14
-20 8 0 -5 -24 -8 -52 -8 -29 1 -58 -2 -63 -6 -7 -5 -11 4 -12 24 0 18 -3 39
-5 47 -8 29 -63 98 -82 104 -16 4 -17 8 -7 20 8 9 17 14 21 11 5 -3 11 -1 14
3 3 5 22 9 42 10 20 1 39 4 42 7 9 9 25 0 31 -16z m222 -10 c10 -5 24 -7 32
-4 8 4 14 0 14 -9 0 -16 -33 -16 -59 1 -19 11 -39 13 -32 2 3 -5 10 -6 16 -3
7 4 8 2 4 -5 -5 -8 -12 -9 -19 -2 -12 9 -18 11 -36 11 -5 0 -11 6 -14 13 -4
11 5 13 36 10 22 -3 49 -9 58 -14z m-388 -26 c-3 -16 -5 -36 -5 -45 1 -21 -14
-24 -21 -5 -3 6 -4 2 -4 -10 1 -12 4 -20 8 -17 4 2 10 0 14 -6 3 -5 0 -10 -7
-10 -9 0 -9 -3 2 -10 17 -11 10 -13 -14 -4 -9 3 -14 10 -11 14 2 4 -4 17 -15
30 -10 12 -16 28 -14 35 3 7 1 16 -5 20 -7 4 -8 -1 -4 -12 6 -16 5 -16 -10 -4
-15 12 -17 12 -11 -3 3 -9 2 -16 -4 -16 -5 0 -13 7 -16 15 -7 18 35 38 59 29
8 -4 15 -1 15 6 0 7 7 10 16 6 8 -3 12 -2 9 4 -3 6 1 10 9 10 11 0 13 -7 9
-27z m532 -27 c6 -6 17 -12 25 -12 22 0 80 -33 80 -45 0 -6 5 -7 10 -4 6 3 10
2 10 -2 0 -5 16 -17 35 -27 29 -16 33 -21 22 -34 -10 -13 -9 -14 1 -8 7 4 24
1 38 -9 22 -14 23 -19 12 -33 -11 -13 -11 -14 0 -8 15 9 72 -39 72 -60 0 -6 6
-14 13 -17 20 -8 57 -90 50 -115 -3 -12 -10 -22 -15 -22 -5 0 -6 4 -3 10 3 6
-1 7 -9 4 -9 -3 -14 -10 -11 -14 8 -13 -22 -19 -34 -7 -10 9 -12 9 -9 -1 2 -8
-7 -18 -20 -23 -15 -5 -21 -5 -17 1 3 6 -1 7 -9 4 -9 -3 -14 -10 -11 -14 3 -4
-4 -10 -15 -13 -23 -6 -24 -3 -10 24 8 15 7 21 -4 25 -8 3 -12 12 -9 20 3 8 9
11 14 8 5 -3 9 2 9 11 0 9 5 15 11 13 7 -2 22 5 34 16 20 17 21 22 8 47 -7 15
-20 33 -28 39 -13 11 -14 10 -9 -6 4 -10 4 -16 -1 -12 -4 4 -14 1 -21 -7 -8
-8 -21 -12 -28 -9 -8 3 -17 0 -22 -7 -4 -8 -3 -10 4 -5 25 15 10 -3 -15 -20
-22 -14 -25 -14 -15 -2 10 13 10 17 0 20 -10 4 -10 8 1 21 7 9 17 14 22 11 5
-3 9 1 9 8 0 8 10 22 22 33 15 12 18 20 10 23 -7 2 -12 9 -12 17 0 18 -27 38
-34 26 -4 -6 -20 -20 -36 -31 l-30 -22 12 29 c7 15 17 31 23 35 6 5 5 8 -4 8
-8 0 -11 6 -7 16 3 8 2 12 -4 9 -14 -9 -12 8 3 25 10 12 9 12 -4 2 -12 -9 -18
-9 -28 1 -8 8 -14 9 -19 1 -4 -6 -21 -19 -39 -29 -18 -10 -29 -23 -26 -28 4
-6 1 -7 -6 -2 -9 5 -6 13 11 29 12 11 26 20 31 18 5 -1 6 2 2 8 -3 6 -11 8
-16 5 -5 -4 -9 0 -9 8 0 19 -40 68 -50 62 -5 -3 -16 2 -24 11 -13 13 -20 14
-31 4 -8 -7 -12 -17 -8 -23 3 -5 1 -7 -5 -3 -5 3 -12 1 -14 -5 -2 -7 -9 -5
-18 6 -12 15 -12 16 6 13 13 -2 18 2 16 14 -2 12 2 16 13 12 8 -4 17 0 21 9 5
14 9 14 42 0 20 -8 42 -20 47 -27z m-131 8 c4 -12 2 -12 -14 -4 -11 6 -20 15
-20 20 0 14 28 1 34 -16z m-196 -39 c-3 -3 -9 2 -12 12 -6 14 -5 15 5 6 7 -7
10 -15 7 -18z m-536 -37 c-7 -7 -12 -8 -12 -2 0 14 12 26 19 19 2 -3 -1 -11
-7 -17z m333 -57 c3 -5 2 -12 -3 -15 -5 -3 -9 1 -9 9 0 17 3 19 12 6z m80 -15
c8 4 15 1 15 -5 0 -6 -3 -10 -7 -10 -5 1 -11 0 -15 -1 -5 -1 -16 -3 -25 -4
-10 -1 -28 -7 -41 -15 -13 -7 -28 -10 -35 -7 -7 2 -4 5 6 5 9 1 17 5 17 10 0
5 9 11 21 14 13 4 18 10 13 18 -4 8 -3 10 4 5 7 -4 12 -1 12 6 0 8 4 7 11 -4
5 -10 16 -15 24 -12z m-149 -12 c-3 -8 0 -14 7 -14 7 0 13 -8 14 -18 1 -10 -5
-19 -12 -19 -8 0 -12 4 -9 9 3 5 0 15 -6 23 -7 8 -9 15 -5 15 4 0 2 7 -5 15
-11 13 -10 14 4 9 10 -4 15 -13 12 -20z m449 9 c-2 -10 -4 -22 -4 -27 -1 -5
-8 -3 -16 4 -8 6 -19 9 -24 5 -7 -3 -8 0 -5 9 3 9 9 14 13 12 4 -3 13 -1 21 5
19 11 19 12 15 -8z m195 13 c0 -2 -8 -10 -17 -17 -16 -13 -17 -12 -4 4 13 16
21 21 21 13z m-260 -20 c-7 -7 -14 -6 -21 1 -9 9 -7 12 9 10 14 -1 18 -5 12
-11z m123 -30 c8 3 18 1 21 -5 4 -6 13 -8 20 -5 7 3 16 -2 20 -12 5 -12 9 -14
20 -5 16 14 34 -4 39 -40 3 -18 10 -23 25 -21 17 2 19 -1 15 -19 -4 -15 -2
-20 5 -15 6 3 17 -2 24 -12 7 -10 22 -24 33 -31 13 -8 14 -11 3 -7 -11 3 -15
-1 -14 -12 2 -9 9 -18 17 -20 11 -3 11 -1 -1 7 -9 7 -10 11 -3 11 16 0 26 -17
13 -25 -6 -4 -8 -11 -5 -16 4 -5 2 -9 -3 -9 -5 0 -15 13 -22 30 -7 16 -16 27
-21 24 -5 -3 -9 -2 -8 3 4 17 -14 43 -25 36 -6 -3 -8 -3 -4 1 7 9 -27 46 -42
46 -5 0 -10 5 -10 10 0 6 6 10 13 10 9 0 9 2 -1 9 -8 4 -13 11 -13 15 3 20 0
26 -9 21 -5 -3 -10 -11 -10 -16 0 -6 4 -8 8 -5 5 3 9 -1 9 -9 0 -8 -4 -15 -9
-15 -4 0 -8 4 -8 9 0 5 -10 11 -21 14 -15 4 -20 11 -15 23 5 14 4 15 -9 4 -14
-12 -20 -7 -16 14 1 5 -5 6 -14 2 -21 -8 -58 12 -49 26 5 7 11 6 19 -6 7 -9
19 -14 28 -10z m958 -99 c-10 -9 -11 -8 -5 6 3 10 9 15 12 12 3 -3 0 -11 -7
-18z m-2379 -17 c0 -5 1 -16 2 -22 1 -14 15 -32 55 -73 13 -14 20 -25 15 -25
-4 0 7 -15 24 -33 18 -18 29 -37 25 -41 -5 -4 -3 -6 2 -4 15 5 95 -55 95 -71
0 -8 3 -11 6 -8 10 10 44 -12 40 -26 -1 -6 -1 -9 1 -5 9 16 45 -13 38 -30 -5
-13 -3 -14 5 -6 9 9 27 5 73 -18 34 -17 71 -38 81 -47 11 -9 16 -10 12 -3 -10
17 -2 15 47 -9 23 -12 43 -21 44 -21 2 1 24 -8 50 -20 27 -12 50 -22 53 -23 3
-1 20 -5 38 -9 29 -7 37 -16 33 -39 -1 -5 3 -6 9 -2 6 3 8 11 5 16 -7 11 -3
11 19 3 9 -3 13 -11 9 -17 -4 -6 0 -8 11 -4 19 8 80 -26 68 -38 -4 -5 -2 -5 5
-2 6 4 18 0 26 -8 9 -8 18 -15 22 -15 13 0 36 -30 30 -40 -3 -6 0 -7 9 -4 10
4 20 -3 27 -20 7 -14 16 -26 21 -26 4 0 8 -7 8 -15 0 -8 5 -15 12 -15 6 0 8
-3 5 -7 -8 -8 -47 31 -47 47 0 6 -4 8 -10 5 -13 -8 -52 19 -42 30 4 5 2 5 -4
2 -6 -3 -39 3 -75 15 -35 11 -82 24 -104 29 -22 5 -44 11 -50 13 -5 1 -36 11
-68 20 -35 11 -55 22 -51 28 4 7 2 8 -5 4 -6 -4 -28 -2 -49 5 -65 21 -202 91
-196 100 3 5 -1 6 -9 3 -8 -3 -18 0 -22 6 -4 6 -15 8 -25 5 -10 -3 -21 -1 -25
4 -4 7 1 8 12 4 10 -4 -8 19 -40 51 -32 32 -55 62 -51 68 4 7 3 8 -4 4 -7 -4
-17 7 -26 27 -16 39 -36 57 -36 32 0 -10 -5 -13 -12 -9 -9 5 -9 2 1 -9 9 -12
10 -17 2 -17 -7 0 -9 -5 -5 -12 4 -6 8 -27 10 -45 1 -28 -1 -32 -12 -22 -8 6
-11 15 -8 20 3 5 0 8 -7 7 -6 -2 -14 3 -17 11 -3 9 0 11 9 6 8 -5 11 -4 6 1
-5 5 -13 9 -18 9 -5 0 -9 4 -8 9 0 5 -3 12 -8 15 -12 9 -34 49 -40 75 -10 40
-18 156 -11 156 13 0 9 28 -4 33 -8 3 -6 6 5 6 9 1 18 -3 19 -9z m1003 0 c-3
-5 -12 -10 -18 -10 -7 0 -6 4 3 10 19 12 23 12 15 0z m128 1 c4 0 3 -7 -3 -13
-5 -7 -19 -25 -31 -40 -21 -29 -49 -38 -49 -16 0 6 -6 4 -13 -7 -15 -20 -34
-5 -21 17 5 7 3 8 -5 4 -7 -5 -10 -14 -7 -22 3 -8 -1 -14 -8 -14 -8 0 -21 -3
-30 -6 -18 -7 -20 4 -6 26 9 13 11 13 21 0 8 -12 9 -11 4 6 -7 25 7 39 61 57
34 11 55 13 87 8z m824 -7 c-3 -3 -12 -4 -19 -1 -8 3 -5 6 6 6 11 1 17 -2 13
-5z m-726 -26 c0 -10 2 -10 6 0 4 10 8 10 19 1 8 -6 11 -16 7 -22 -3 -6 -1 -7
6 -3 6 4 9 12 6 17 -7 11 -3 11 19 3 9 -3 13 -11 9 -18 -4 -8 -3 -8 6 0 17 16
63 -6 55 -26 -3 -8 -2 -11 2 -7 4 4 18 -8 31 -25 28 -38 28 -42 6 -33 -14 5
-15 4 -6 -6 9 -9 6 -21 -17 -54 -26 -37 -32 -41 -64 -37 -20 2 -34 7 -32 11 2
3 -10 6 -27 5 -50 -1 -66 6 -93 45 -26 39 -31 56 -11 45 7 -4 9 -3 4 2 -5 5
-13 9 -18 9 -5 0 -9 3 -9 8 0 4 0 12 0 18 0 5 5 7 10 4 6 -4 9 -3 8 2 -4 12
38 64 46 56 3 -3 6 -1 6 5 0 16 30 15 31 0z m243 -17 c-2 -3 -12 3 -22 13 -16
17 -16 18 5 5 12 -7 20 -15 17 -18z m-334 -5 c0 -2 -8 -10 -17 -17 -16 -13
-17 -12 -4 4 13 16 21 21 21 13z m296 -21 c4 -8 10 -13 14 -10 5 3 11 -4 15
-15 4 -11 11 -18 16 -15 5 3 6 -1 3 -10 -4 -9 -3 -15 2 -13 5 2 10 -1 11 -6 1
-5 7 -13 15 -17 9 -6 9 -9 1 -9 -6 0 -19 7 -27 16 -9 8 -16 13 -16 9 0 -3 -6
0 -14 7 -11 10 -11 16 -2 27 8 11 8 13 0 8 -7 -4 -19 4 -28 18 -9 14 -12 25
-6 25 6 0 13 -7 16 -15z m79 -5 c10 -11 14 -20 9 -21 -5 0 0 -4 11 -9 15 -7
16 -9 4 -9 -9 -1 -22 6 -29 14 -7 8 -9 15 -4 15 5 0 0 7 -10 15 -11 8 -15 15
-9 15 5 0 18 -9 28 -20z m-1032 -6 c11 -11 -3 -24 -18 -18 -8 4 -12 10 -9 15
6 11 18 12 27 3z m420 -53 c-10 -17 -22 -31 -27 -31 -5 0 -3 -7 4 -15 11 -13
10 -14 -6 -9 -10 4 -16 4 -12 -1 4 -4 2 -17 -4 -29 -7 -11 -12 -24 -13 -28 0
-4 -6 -12 -12 -17 -9 -8 -10 -8 -4 0 5 6 7 18 4 25 -3 8 0 14 7 14 6 0 8 5 5
10 -3 6 -1 10 5 10 6 0 9 4 6 9 -3 5 4 20 15 35 11 14 18 26 15 26 -3 0 2 8
12 18 24 26 26 20 5 -17z m155 34 c-2 -3 -26 -9 -52 -14 -26 -5 -44 -5 -39 -1
7 7 34 13 82 19 8 0 12 -1 9 -4z m630 -7 c18 -18 15 -57 -4 -54 -21 3 -38 32
-24 41 6 4 8 11 5 16 -9 13 9 11 23 -3z m-590 -27 c7 0 10 -5 7 -11 -3 -5 -3
-10 2 -10 11 0 43 -58 43 -79 0 -10 -15 -47 -34 -81 -32 -61 -68 -91 -82 -68
-4 7 -9 7 -13 0 -10 -16 -87 -19 -83 -3 1 7 -2 10 -7 6 -6 -3 -15 4 -21 15 -6
11 -8 20 -5 20 4 0 -1 7 -10 16 -44 45 54 207 115 191 11 -3 20 -1 20 3 0 5
12 7 28 6 15 -2 33 -4 40 -5z m465 -14 c13 -20 13 -24 1 -24 -8 0 -12 2 -9 5
2 3 0 13 -6 23 -14 27 -4 24 14 -4z m-1004 -45 c14 -3 22 -1 18 5 -3 5 0 10 8
10 11 0 12 -4 4 -14 -9 -10 -7 -18 4 -11 1 1 13 -5 27 -12 14 -8 32 -13 40
-12 9 2 11 0 4 -5 -6 -4 -10 -20 -9 -35 1 -18 -3 -28 -12 -28 -7 0 -13 -5 -13
-11 0 -5 4 -8 9 -5 4 3 8 -8 7 -23 -1 -16 -4 -27 -8 -25 -4 2 -9 0 -13 -6 -3
-5 -2 -10 2 -10 5 0 9 -9 10 -20 1 -11 -2 -20 -8 -20 -5 0 -9 5 -9 10 0 5 -3
9 -7 9 -25 -4 -53 2 -48 11 3 5 0 7 -8 4 -21 -8 -60 30 -62 60 0 18 4 25 12
22 7 -3 13 -1 13 4 0 6 -4 10 -9 10 -13 0 -21 39 -10 46 6 3 5 12 -3 22 -11
13 -11 14 1 8 10 -7 12 -3 6 14 -6 20 -5 22 11 15 11 -4 30 -10 43 -13z m232
-5 c-10 -9 -11 -8 -5 6 3 10 9 15 12 12 3 -3 0 -11 -7 -18z m729 -39 c0 -11 5
-16 10 -13 6 3 10 -4 11 -17 0 -13 3 -36 5 -51 3 -17 1 -26 -5 -23 -5 4 -13 2
-16 -4 -4 -6 -3 -10 2 -9 20 3 23 -3 11 -23 -7 -13 -13 -27 -13 -33 -1 -5 -7
-9 -14 -7 -7 1 -10 -2 -7 -7 10 -16 -5 -40 -21 -34 -11 5 -14 3 -9 -6 6 -10 3
-10 -12 0 -17 11 -19 16 -9 29 10 13 10 13 -4 2 -29 -22 -51 -4 -47 39 2 20 0
36 -3 33 -4 -2 -9 15 -12 38 -5 41 6 73 23 63 4 -3 7 3 6 13 0 10 5 16 14 14
8 -2 12 0 8 3 -4 4 -3 16 3 26 9 18 11 18 44 2 22 -10 35 -24 35 -35z m70 32
c0 -5 -6 -12 -12 -16 -7 -4 -10 -4 -6 1 4 4 3 14 -4 22 -8 11 -7 12 6 7 9 -3
16 -10 16 -14z m-804 -26 c-3 -9 -6 -18 -6 -20 0 -2 -5 -4 -11 -4 -8 0 -9 4 0
13 6 8 8 17 4 20 -3 4 -1 7 6 7 8 0 11 -6 7 -16z m937 -1 c-3 -7 -8 -13 -12
-13 -4 0 -8 6 -8 13 0 8 6 14 13 14 7 0 10 -6 7 -14z m-119 -20 c3 -12 -1 -20
-10 -20 -9 0 -11 4 -5 10 5 5 7 17 4 26 -4 9 -3 13 1 10 4 -4 8 -15 10 -26z
m753 -36 c-30 -51 -67 -91 -75 -82 -4 3 -2 9 4 13 19 14 71 87 79 112 5 14 10
19 12 12 3 -7 -7 -31 -20 -55z m-620 19 c-1 -26 -5 -32 -16 -28 -10 4 -11 7
-3 10 7 2 12 8 12 13 0 6 -4 8 -9 4 -5 -3 -13 0 -17 6 -4 8 -3 9 5 5 6 -4 14
0 17 8 9 24 12 19 11 -18z m-470 18 c-3 -3 -12 -4 -19 -1 -8 3 -5 6 6 6 11 1
17 -2 13 -5z m44 -34 c37 0 47 -16 51 -84 3 -58 2 -60 -31 -83 -19 -13 -41
-21 -48 -18 -8 2 -12 1 -9 -4 3 -5 -8 -15 -26 -22 -29 -12 -32 -11 -54 14 -13
15 -27 27 -31 27 -4 0 -15 11 -24 23 -15 21 -15 26 8 77 38 82 46 89 96 78 23
-5 54 -9 68 -8z m-1178 -17 c0 -4 11 -19 23 -32 13 -14 20 -29 17 -35 -3 -6
-3 -8 2 -4 4 4 28 -11 53 -33 66 -58 143 -101 262 -147 97 -37 265 -91 333
-106 15 -4 25 -11 22 -16 -3 -5 1 -7 9 -4 8 3 36 -4 62 -15 42 -19 45 -23 33
-38 -13 -17 -12 -17 4 -4 17 14 22 12 47 -18 30 -33 31 -65 3 -54 -10 4 -14 2
-10 -3 4 -7 -6 -9 -25 -6 -21 3 -26 7 -17 13 10 6 10 9 2 9 -6 0 -15 -5 -18
-10 -4 -6 -13 -7 -23 -2 -9 5 -44 14 -77 22 -233 50 -431 112 -419 132 3 4 -2
5 -10 2 -20 -8 -140 111 -132 132 3 8 2 12 -4 9 -6 -3 -10 -1 -10 5 0 17 -25
6 -26 -11 -1 -8 -2 -21 -3 -29 -1 -13 -3 -13 -15 0 -19 20 -68 110 -60 110 4
0 2 6 -4 13 -5 6 -13 28 -17 47 -6 29 -5 33 7 25 8 -6 6 -3 -4 7 -10 9 -18 26
-18 39 0 20 10 22 13 2z m1478 0 c8 -9 9 -14 3 -10 -7 4 -11 -3 -11 -19 0 -14
-6 -31 -13 -37 -10 -9 -11 -9 -6 0 12 21 13 72 2 77 -8 3 -8 5 0 5 6 1 18 -7
25 -16z m142 -30 c-1 -4 -5 -17 -9 -27 -6 -15 -4 -17 7 -11 11 6 11 5 2 -5 -6
-7 -9 -20 -6 -29 4 -13 3 -14 -5 -1 -6 8 -8 18 -6 22 3 4 0 8 -6 8 -6 0 -4 10
6 25 15 22 15 25 1 25 -9 0 -19 4 -22 10 -4 6 2 7 17 1 13 -5 22 -13 21 -18z
m-870 -33 c18 -33 23 -56 20 -85 -2 -22 -4 -46 -5 -52 -2 -16 -6 -16 -23 1 -8
7 -11 17 -7 20 3 4 -1 4 -9 1 -22 -8 -47 46 -43 91 2 29 31 81 40 72 1 -2 13
-23 27 -48z m-113 30 c-13 -9 -13 -10 0 -10 12 0 12 -2 2 -9 -11 -6 -10 -10 3
-15 14 -5 15 -9 5 -21 -9 -10 -9 -15 -1 -15 6 0 11 -5 11 -11 0 -5 -4 -8 -9
-4 -5 3 -13 1 -16 -5 -4 -6 -3 -10 2 -9 22 4 35 -2 30 -15 -3 -7 0 -19 6 -26
9 -8 4 -8 -16 1 -25 11 -26 14 -11 19 17 6 17 7 -2 12 -16 4 -19 13 -18 56 2
64 1 62 17 62 8 0 7 -4 -3 -10z m834 -67 c-3 -16 -6 -36 -7 -45 -1 -9 -5 -14
-9 -12 -4 3 -8 0 -8 -7 0 -7 -3 -10 -6 -7 -3 4 2 20 11 37 9 19 11 31 5 31 -7
0 -6 6 2 15 18 20 19 19 12 -12z m-994 -23 c8 -5 11 -10 5 -10 -5 0 -17 5 -25
10 -8 5 -10 10 -5 10 6 0 17 -5 25 -10z m370 2 c0 -5 -7 -9 -15 -9 -8 0 -12 4
-9 9 3 4 9 8 15 8 5 0 9 -4 9 -8z m43 1 c-7 -2 -19 -2 -25 0 -7 3 -2 5 12 5
14 0 19 -2 13 -5z m737 -13 c-8 -5 -19 -10 -25 -10 -5 0 -3 5 5 10 8 5 20 10
25 10 6 0 3 -5 -5 -10z m-685 -10 c-3 -5 0 -7 7 -5 7 3 36 -18 64 -47 l50 -53
-16 -45 -16 -45 -67 -3 c-60 -3 -69 0 -92 22 -14 14 -29 27 -33 28 -4 2 -5 8
-4 13 2 5 0 7 -4 3 -14 -15 -34 15 -34 49 0 32 2 34 18 22 16 -13 16 -13 0 6
-29 35 -14 43 125 64 5 0 5 -3 2 -9z m-734 -17 c13 -16 12 -17 -3 -4 -10 7
-18 15 -18 17 0 8 8 3 21 -13z m49 -23 c8 -5 11 -10 5 -10 -5 0 -17 5 -25 10
-8 5 -10 10 -5 10 6 0 17 -5 25 -10z m935 -10 c-3 -5 -12 -10 -18 -10 -7 0 -6
4 3 10 19 12 23 12 15 0z m95 -11 c0 -5 3 -8 8 -8 4 1 14 1 22 0 13 -1 13 -2
0 -11 -11 -7 -12 -10 -2 -10 7 0 -8 -23 -35 -51 -42 -45 -73 -66 -108 -74 -5
-2 -14 -4 -20 -6 -5 -1 -25 1 -43 5 -33 8 -33 8 -17 33 10 14 13 23 7 19 -6
-4 -8 2 -5 14 3 11 9 17 14 14 5 -3 6 2 3 10 -4 11 0 16 14 16 12 0 24 5 27
10 4 6 11 8 16 5 5 -4 9 -1 9 5 0 7 7 9 17 6 10 -4 14 -4 10 0 -10 11 45 41
66 36 9 -2 17 -8 17 -13z m793 4 c-4 -10 -9 -20 -13 -23 -3 -3 -14 -18 -24
-33 -9 -16 -20 -27 -22 -24 -5 4 56 97 63 97 1 0 -1 -8 -4 -17z m-1777 -1 c20
-17 188 -75 342 -117 34 -10 61 -20 58 -22 -12 -12 -393 112 -420 138 -13 11
6 12 20 1z m988 -112 c-48 -50 -68 -66 -43 -32 22 28 77 82 84 82 4 0 -15 -22
-41 -50z m-1100 -42 c-3 -4 2 -5 10 -2 9 3 16 2 16 -4 0 -10 107 -70 137 -77
73 -18 179 -49 183 -54 3 -3 16 -6 30 -5 14 0 30 -2 35 -5 6 -3 16 -6 23 -7 8
-2 21 -6 30 -10 23 -10 28 -11 60 -13 24 -2 25 -3 7 -10 -11 -5 -23 -7 -27 -5
-4 3 -9 0 -13 -5 -3 -6 -12 -8 -20 -4 -8 3 -15 1 -15 -5 0 -6 -11 -9 -25 -8
-13 2 -22 0 -20 -5 4 -6 -43 -19 -90 -24 -37 -4 -245 69 -245 86 0 5 -6 8 -12
6 -7 -1 -12 3 -11 10 2 7 -3 10 -11 7 -19 -7 -80 67 -94 115 -7 21 -12 53 -12
71 l0 34 34 -39 c19 -21 33 -42 30 -47z m586 -10 c10 -6 7 -7 -10 -2 -14 3
-32 11 -40 16 -10 6 -7 7 10 2 14 -3 32 -11 40 -16z m254 0 c-3 -4 -30 -7 -62
-6 -33 1 -47 4 -34 7 32 8 101 8 96 -1z m21 -28 c3 -5 1 -10 -4 -10 -6 0 -11
5 -11 10 0 6 2 10 4 10 3 0 8 -4 11 -10z m-640 -35 c39 -12 73 -22 78 -23 8
-1 49 -9 82 -17 130 -31 155 -38 151 -42 -2 -3 -38 3 -78 12 -40 9 -83 19 -94
21 -74 14 -244 70 -244 80 0 3 8 3 18 -1 9 -4 49 -18 87 -30z m553 -30 c-3 -3
-9 2 -12 12 -6 14 -5 15 5 6 7 -7 10 -15 7 -18z m202 21 c0 -3 -4 -8 -10 -11
-5 -3 -10 -1 -10 4 0 6 5 11 10 11 6 0 10 -2 10 -4z m-145 -16 c-2 -3 16 -6
40 -6 24 0 42 3 39 7 -2 4 4 6 13 5 9 -2 18 -8 19 -15 1 -6 0 -7 -3 -1 -2 5
-10 7 -16 3 -16 -10 -117 -12 -111 -2 2 4 -4 10 -13 12 -10 3 -6 4 9 4 15 -1
25 -4 23 -7z m905 -35 c-18 -19 -36 -33 -38 -30 -6 5 62 74 67 69 3 -2 -11
-20 -29 -39z m-1163 -31 c-3 -3 -12 -4 -19 -1 -8 3 -5 6 6 6 11 1 17 -2 13 -5z
m-380 -65 c6 -6 9 -17 6 -25 -3 -8 8 -15 34 -20 49 -9 58 -14 42 -25 -11 -7
-10 -9 3 -9 12 0 16 -7 14 -27 -1 -20 -7 -27 -18 -25 -19 3 -33 -15 -33 -42 0
-11 -7 -21 -15 -23 -13 -4 -13 -3 0 6 8 6 12 11 8 12 -5 1 -12 3 -18 4 -5 1
-14 3 -20 4 -5 0 -10 6 -10 12 0 8 6 7 17 -2 15 -12 16 -12 10 3 -3 10 -3 17
1 16 4 -1 16 3 28 9 16 9 20 19 16 43 -4 28 -7 31 -31 25 -14 -4 -30 -7 -35
-8 -5 -1 -11 13 -13 32 -2 19 -9 38 -16 43 -9 6 -8 8 4 8 8 0 20 -5 26 -11z
m83 -31 c10 -6 7 -7 -10 -2 -14 3 -32 11 -40 16 -10 6 -7 7 10 2 14 -3 32 -11
40 -16z m712 -4 c-2 -18 -2 -18 13 0 8 11 15 15 15 9 0 -7 -5 -15 -11 -18 -6
-4 -8 -13 -6 -19 3 -7 -1 -13 -8 -13 -8 0 -11 7 -7 15 4 11 1 13 -8 7 -9 -5
-11 -4 -6 4 4 6 3 18 -4 26 -9 11 -7 13 7 11 11 -2 17 -10 15 -22z m-261 2
c11 -5 15 -15 12 -27 -4 -15 -8 -17 -14 -8 -4 7 -5 17 -2 23 3 5 1 6 -6 2 -9
-6 -8 -14 4 -33 14 -20 14 -27 3 -41 -11 -13 -11 -14 1 -7 10 5 12 4 7 -4 -10
-15 -29 -3 -22 15 3 8 1 27 -5 42 -6 15 -10 29 -9 32 1 2 -7 8 -17 12 -14 6
-12 7 7 4 14 -2 32 -6 41 -10z m381 -7 c-2 -7 -11 -19 -20 -27 -9 -7 -11 -11
-4 -7 14 7 17 -11 2 -20 -6 -4 -7 -11 -4 -17 4 -6 2 -8 -4 -4 -6 3 -9 20 -7
36 2 17 0 30 -4 30 -5 0 -11 6 -14 13 -4 10 4 13 27 12 20 -2 30 -7 28 -16z
m-203 -11 c6 -19 8 -58 2 -91 0 -5 -5 -5 -11 -2 -6 3 -7 -1 -4 -9 9 -22 -3
-20 -29 5 -16 16 -17 20 -5 16 9 -3 24 0 34 7 15 11 13 13 -15 11 -20 -1 -28
2 -22 8 5 5 7 16 4 24 -5 12 -1 14 15 8 18 -5 22 -2 22 15 0 12 -4 18 -10 15
-5 -3 -10 -1 -10 4 0 20 20 11 29 -11z m323 -3 c20 -10 28 -10 28 -2 0 8 3 8
8 2 4 -5 16 -11 27 -12 32 -3 48 -8 75 -23 14 -7 27 -13 30 -12 3 1 22 -3 42
-9 42 -11 71 -36 65 -53 -3 -7 4 -13 14 -13 10 -1 19 3 19 8 0 6 -4 8 -9 5
-10 -6 -25 24 -16 32 3 3 5 1 5 -5 0 -6 10 -13 21 -16 15 -4 20 -11 15 -23 -5
-14 -4 -15 8 -5 11 9 17 8 28 -6 7 -10 20 -19 28 -21 8 -2 17 -8 18 -13 2 -5
8 -7 13 -3 5 3 9 1 9 -5 0 -5 -6 -12 -12 -15 -7 -3 -3 -3 10 0 l22 5 0 -135
c0 -112 -3 -136 -14 -136 -21 0 -31 21 -15 32 10 7 8 8 -8 3 -14 -4 -34 3 -59
20 -25 17 -44 23 -58 19 -18 -6 -19 -5 -7 10 9 10 10 16 2 16 -6 0 -11 7 -11
16 0 9 5 12 13 8 7 -5 6 0 -3 11 -14 17 -13 18 2 12 10 -3 20 -1 24 5 4 7 3 8
-4 4 -27 -16 0 40 32 67 11 10 15 16 9 12 -17 -8 -16 6 2 32 11 16 12 24 4 29
-8 5 -9 3 -4 -6 5 -9 4 -11 -4 -6 -9 6 -9 11 -1 22 10 11 6 13 -18 11 -25 -2
-28 -5 -19 -17 6 -8 7 -12 3 -8 -5 4 -15 3 -23 -4 -7 -6 -17 -7 -21 -3 -4 4
-1 10 6 12 6 3 12 9 12 14 0 6 -4 7 -10 4 -5 -3 -11 -1 -11 4 -3 20 -5 26 -16
46 -9 16 -14 17 -27 6 -8 -7 -18 -22 -22 -33 -4 -12 -11 -17 -21 -13 -12 4
-13 2 -5 -8 8 -10 6 -21 -9 -46 -16 -26 -17 -36 -8 -48 10 -11 10 -14 -2 -11
-8 2 -13 -4 -11 -14 1 -9 -1 -19 -5 -21 -5 -3 -9 5 -9 17 -1 12 -12 37 -24 56
-12 19 -20 28 -17 18 6 -18 -1 -30 -14 -22 -5 3 -5 13 1 23 7 14 19 17 52 15
30 -2 38 0 28 6 -8 5 -24 10 -35 11 l-20 0 20 9 c18 7 19 8 3 15 -10 4 -18 14
-18 23 0 13 2 13 13 -2 8 -11 20 -16 28 -13 10 4 9 6 -3 6 -10 1 -18 6 -18 11
0 12 2 12 34 0 28 -10 29 -10 20 14 -3 9 -10 14 -14 11 -5 -3 -6 5 -2 17 3 13
1 19 -5 15 -6 -4 -24 0 -41 9 -56 27 -69 26 -87 -12 -9 -19 -13 -39 -10 -44 3
-6 2 -10 -4 -10 -6 0 -8 -6 -5 -14 7 -18 -12 -30 -22 -15 -4 8 -3 9 4 5 8 -4
10 5 8 28 -1 19 1 33 5 30 4 -2 7 8 6 23 -2 29 -28 52 -59 53 -17 0 -23 -11
-19 -34 1 -5 -6 -17 -15 -27 -9 -11 -13 -19 -8 -19 5 0 2 -5 -6 -10 -12 -7
-12 -10 -1 -10 9 0 11 -8 7 -26 -5 -19 -4 -24 6 -18 10 6 11 5 1 -8 -7 -8 -10
-18 -6 -22 4 -4 -1 -4 -11 0 -14 5 -15 9 -4 15 7 5 9 9 3 9 -5 0 -17 -5 -25
-10 -10 -6 -11 -10 -2 -10 13 0 12 -21 -3 -32 -13 -10 -27 1 -18 15 4 7 8 18
9 25 1 7 11 20 21 30 10 9 13 13 6 9 -9 -7 -10 -2 -3 21 4 17 5 34 2 38 -4 4
-1 4 6 0 6 -4 12 -4 13 1 0 4 3 22 5 38 3 22 2 26 -5 15 -8 -12 -10 -11 -9 6
2 18 7 20 37 17 20 -2 48 -10 63 -18z m-652 5 c0 -5 -4 -11 -8 -14 -7 -4 -8
-40 -2 -56 1 -3 2 -9 1 -14 -1 -4 4 -14 10 -22 9 -11 8 -14 -7 -15 -11 0 -14
-3 -6 -6 19 -7 14 -23 -5 -17 -10 2 -8 -1 4 -7 12 -6 24 -18 27 -25 4 -11 0
-11 -18 2 -16 10 -26 12 -31 5 -8 -14 -25 -14 -25 0 0 5 5 7 12 3 7 -5 9 -2 5
8 -3 9 2 26 10 39 9 12 11 19 5 15 -7 -4 -12 -3 -12 3 0 5 5 13 10 16 6 3 10
12 10 18 0 7 -6 4 -14 -5 -10 -13 -15 -15 -24 -6 -9 9 -12 9 -12 1 0 -7 -9
-11 -19 -10 -11 0 -17 5 -15 9 3 5 10 6 15 3 5 -4 9 -1 9 4 0 6 8 11 19 11 10
0 25 8 32 18 13 15 12 16 -3 3 -10 -7 -19 -10 -20 -5 -4 26 -3 40 4 44 12 9
48 9 48 0z m195 -53 c-1 -12 2 -27 7 -34 5 -7 5 -14 -1 -17 -6 -4 -7 -16 -2
-29 4 -12 6 -28 4 -34 -3 -7 1 -13 9 -13 10 0 9 -3 -2 -10 -21 -14 -33 -12
-24 3 6 9 4 9 -7 1 -16 -13 -51 -15 -43 -2 3 4 12 8 20 8 8 0 14 7 14 16 0 8
-4 13 -8 10 -5 -3 -7 9 -6 27 2 45 3 47 14 47 11 0 9 -22 -3 -31 -5 -3 -3 -9
5 -11 10 -4 14 3 14 27 0 20 -5 31 -12 28 -6 -2 -10 5 -8 19 3 30 2 28 17 22
8 -3 13 -15 12 -27z m-398 13 c19 0 24 -4 19 -16 -4 -9 -1 -23 5 -30 9 -11 8
-14 -1 -14 -10 0 -10 -3 0 -15 7 -8 10 -15 6 -15 -4 0 1 -12 10 -27 l16 -28
-20 25 c-21 24 -21 24 -19 3 0 -12 12 -27 24 -34 17 -9 21 -18 17 -32 -5 -14
-3 -18 7 -12 8 4 1 -4 -15 -19 -32 -28 -46 -35 -27 -12 7 8 8 16 4 18 -4 3 -2
3 5 1 8 -1 12 3 9 9 -2 7 -10 12 -16 10 -7 -1 -10 2 -6 7 3 6 13 7 23 4 15 -6
15 -5 3 10 -7 9 -17 14 -22 11 -10 -6 -10 -4 -14 41 -2 17 -4 30 -5 30 -3 0
-12 38 -13 57 -1 9 -5 15 -8 12 -4 -2 -10 0 -14 6 -4 6 -11 7 -17 4 -7 -4 -7
-9 0 -13 7 -4 5 -13 -4 -25 -7 -11 -17 -17 -20 -13 -4 4 -1 13 6 22 9 11 9 15
1 15 -8 0 -8 4 1 15 7 8 19 12 26 10 8 -3 25 -5 39 -5z m-40 -65 c0 -8 -7 -15
-15 -15 -12 0 -12 3 -2 15 7 8 13 15 15 15 1 0 2 -7 2 -15z m589 -19 c-3 -24
1 -37 11 -40 13 -5 13 -9 3 -22 -8 -9 -17 -11 -22 -6 -6 6 -25 6 -45 2 -23 -6
-32 -5 -26 1 6 6 19 11 31 12 11 0 19 5 16 9 -3 4 -11 5 -18 2 -8 -3 -17 0
-22 7 -4 7 -3 10 4 5 6 -3 13 -2 17 4 3 5 1 10 -4 10 -6 0 -11 7 -11 16 0 14
2 14 16 3 15 -12 19 -11 32 9 19 29 22 28 18 -12z m-391 14 c3 -6 -4 -10 -17
-10 -18 0 -20 2 -8 10 19 12 18 12 25 0z m-388 -27 c-4 -3 -2 -12 4 -20 9 -9
8 -13 0 -13 -6 0 -11 5 -11 12 0 6 -3 8 -7 4 -4 -4 3 -16 17 -28 17 -14 19
-18 7 -14 -11 3 -16 2 -12 -4 3 -6 12 -10 18 -10 7 0 23 -12 37 -27 14 -15 18
-23 10 -18 -8 4 -3 -3 13 -18 27 -26 36 -44 15 -31 -7 5 -8 3 -4 -5 5 -7 15
-10 25 -7 12 5 12 3 -3 -9 -10 -8 -23 -12 -29 -8 -6 3 -7 1 -3 -5 4 -7 -2 -16
-16 -21 -13 -5 -46 -25 -75 -45 -29 -20 -58 -37 -65 -38 -7 -2 -16 -7 -20 -13
-4 -5 -6 0 -5 13 0 12 5 22 10 22 5 0 4 7 -3 15 -10 12 -10 15 1 15 9 0 10 3
3 8 -12 8 -13 70 -1 90 5 6 4 12 -1 12 -5 0 -8 12 -6 28 1 15 2 33 3 40 1 13
49 59 57 54 3 -1 12 4 20 13 9 8 18 15 21 15 4 0 3 -3 0 -7z m480 -8 c0 -8 -4
-12 -9 -9 -5 3 -6 10 -3 15 9 13 12 11 12 -6z m-116 -22 c-8 -15 -10 -15 -11
-2 0 17 10 32 18 25 2 -3 -1 -13 -7 -23z m149 6 c0 -5 -4 -9 -8 -9 -5 0 -9 7
-9 15 0 8 4 12 9 9 4 -3 8 -9 8 -15z m380 -29 c0 -3 -11 -6 -25 -6 -17 0 -21
3 -15 11 6 7 6 15 2 20 -4 4 3 1 16 -6 12 -8 22 -16 22 -19z m187 15 c0 -8 -4
-12 -9 -9 -5 3 -6 10 -3 15 9 13 12 11 12 -6z m-87 -31 c0 -8 -4 -14 -9 -14
-6 0 -9 9 -8 19 1 22 17 18 17 -5z m387 1 c-10 -20 -13 -22 -18 -7 -4 9 -1 20
5 24 20 14 24 8 13 -17z m-937 5 c8 -5 11 -10 5 -10 -5 0 -17 5 -25 10 -8 5
-10 10 -5 10 6 0 17 -5 25 -10z m639 -34 c0 -6 -3 -5 -6 2 -2 6 -8 10 -12 8
-4 -3 -7 4 -7 15 0 19 1 19 13 3 7 -10 13 -23 12 -28z m-499 14 c0 -5 -5 -10
-11 -10 -5 0 -7 5 -4 10 3 6 8 10 11 10 2 0 4 -4 4 -10z m100 2 c0 -4 -20 -8
-45 -9 -25 -1 -45 2 -45 6 0 3 20 7 45 8 25 1 45 -1 45 -5z m616 -57 c-1 -11
3 -23 9 -27 6 -5 4 -8 -5 -8 -12 0 -12 -2 -2 -9 11 -7 10 -9 -3 -14 -9 -4 -14
-3 -12 1 7 10 -19 32 -29 24 -4 -4 -4 -2 0 5 3 6 2 14 -4 18 -5 3 -10 12 -10
18 0 8 3 8 9 -1 9 -15 18 -1 30 46 4 13 18 -32 17 -53z m-592 20 c3 -10 -1
-15 -12 -15 -16 -1 -16 -1 1 -11 10 -6 14 -15 10 -22 -11 -18 -12 -37 -3 -37
10 0 8 -20 -3 -37 -5 -7 -4 -13 0 -13 10 0 10 -41 -1 -58 -4 -7 -2 -12 6 -13
10 0 11 -2 0 -6 -10 -4 -10 -8 0 -21 7 -9 8 -13 2 -9 -7 4 -11 -2 -11 -18 0
-16 4 -22 11 -18 6 4 5 0 -2 -9 -9 -11 -10 -18 -2 -23 7 -4 7 -12 -1 -26 -7
-15 -7 -24 1 -34 8 -10 8 -15 -1 -21 -8 -4 -9 -3 -5 4 11 18 0 14 -15 -5 -8
-9 -9 -14 -3 -10 12 7 31 -11 29 -28 0 -5 -5 -21 -9 -34 -5 -14 -4 -27 3 -34
15 -15 14 -27 -3 -27 -8 0 -18 -4 -21 -10 -3 -5 0 -7 8 -4 8 3 18 0 23 -7 4
-7 2 -15 -4 -17 -7 -2 -12 -8 -12 -13 0 -6 3 -8 8 -6 4 3 7 -6 7 -19 0 -17 -4
-23 -14 -19 -11 4 -11 2 -2 -9 9 -11 9 -15 -1 -19 -8 -3 -6 -6 5 -6 10 -1 15
-6 12 -11 -4 -6 -10 -8 -14 -6 -4 3 -13 0 -21 -5 -13 -9 -13 -10 0 -8 45 5 52
-11 7 -18 -12 -2 -25 -7 -30 -12 -10 -10 -67 18 -67 32 0 5 4 6 8 3 4 -2 9 5
9 17 2 17 0 18 -7 7 -5 -8 -12 -11 -16 -7 -4 3 -2 13 5 21 9 11 9 15 0 18 -7
2 -9 10 -5 17 6 9 11 8 23 -6 13 -17 13 -16 3 4 -6 13 -14 23 -18 23 -10 0 -9
172 1 188 5 7 3 12 -5 12 -9 0 -9 3 2 10 12 8 12 10 1 10 -11 0 -11 3 0 17 8
9 9 14 3 10 -6 -3 -11 0 -11 8 0 8 3 12 7 10 4 -2 7 2 7 10 0 8 -4 12 -9 9 -4
-3 -8 0 -8 5 0 6 8 11 17 11 15 0 14 2 -3 15 -16 13 -17 16 -4 25 10 6 11 10
3 10 -7 0 -13 5 -13 11 0 5 6 7 13 3 7 -5 7 -1 -2 10 -13 15 -13 19 0 27 10 6
10 9 2 9 -7 0 -13 5 -13 11 0 5 5 7 10 4 6 -3 10 -1 10 4 0 6 -6 11 -12 11 -9
0 -8 4 2 10 9 6 10 10 3 10 -14 0 -13 66 1 89 6 10 5 12 -2 7 -13 -8 -15 4 -6
27 8 21 120 23 128 2z m-315 1 c-8 -8 -112 -36 -105 -28 4 4 24 12 44 18 38
12 69 17 61 10z m-165 -35 c2 5 3 4 2 -3 -2 -7 -9 -12 -16 -10 -7 1 -17 -2
-24 -7 -8 -7 -12 -3 -14 16 -2 25 -1 25 22 9 15 -9 26 -12 30 -5z m-64 -41 c0
-5 -5 -10 -11 -10 -5 0 -7 5 -4 10 3 6 8 10 11 10 2 0 4 -4 4 -10z m-30 -19
c0 -11 -59 -36 -67 -27 -3 3 1 6 10 6 10 0 17 5 17 11 0 5 4 8 9 4 5 -3 12 -1
16 5 8 12 15 13 15 1z m1220 -11 c0 -5 -2 -10 -4 -10 -3 0 -8 5 -11 10 -3 6
-1 10 4 10 6 0 11 -4 11 -10z m-1194 -26 c-3 -14 -11 -33 -18 -42 -11 -14 -10
-15 6 -8 20 7 20 7 0 -15 -15 -17 -15 -21 -3 -17 9 4 16 1 16 -7 0 -7 -7 -11
-16 -8 -11 3 -10 0 3 -11 11 -9 15 -16 9 -16 -13 0 -39 30 -27 30 5 0 1 5 -9
11 -9 6 -15 14 -12 20 4 5 1 9 -5 9 -6 0 -8 5 -5 10 3 6 2 10 -4 10 -6 0 -8 7
-5 15 4 8 15 15 26 15 10 0 16 4 13 10 -3 6 1 7 9 4 9 -3 16 -1 16 5 0 6 2 11
5 11 3 0 3 -12 1 -26z m1451 -38 c20 -17 23 -29 23 -93 0 -57 -3 -72 -12 -67
-9 5 -8 2 1 -9 8 -10 11 -21 7 -24 -7 -7 -64 58 -58 66 2 2 -2 7 -8 11 -7 4
-9 13 -5 19 4 7 12 8 19 4 7 -4 4 -1 -6 9 -14 13 -16 22 -8 42 5 14 6 26 2 26
-4 0 -9 14 -10 31 -3 35 -5 35 55 -15z m-204 20 c3 -8 0 -17 -7 -19 -10 -4
-12 1 -9 14 6 23 9 24 16 5z m-1384 -9 c-2 -2 -21 -15 -41 -30 -21 -16 -38
-24 -38 -19 0 11 73 62 79 56 2 -2 2 -5 0 -7z m-129 -141 c0 -2 -8 -10 -17
-17 -16 -13 -17 -12 -4 4 13 16 21 21 21 13z m-30 -47 c0 -5 -4 -8 -8 -6 -5 1
-21 -11 -36 -28 -29 -32 -24 -16 9 27 19 25 35 28 35 7z m831 -391 c-11 -11
-12 -10 -6 1 6 11 4 13 -8 8 -9 -3 -19 -2 -22 3 -7 11 27 19 40 8 5 -5 4 -13
-4 -20z"/>
<path d="M1190 2430 c0 -5 5 -10 10 -10 6 0 10 5 10 10 0 6 -4 10 -10 10 -5 0
-10 -4 -10 -10z"/>
<path d="M1238 2433 c7 -3 16 -2 19 1 4 3 -2 6 -13 5 -11 0 -14 -3 -6 -6z"/>
<path d="M1316 2423 c-6 -14 -5 -15 5 -6 7 7 10 15 7 18 -3 3 -9 -2 -12 -12z"/>
<path d="M1183 2396 c23 -26 31 -25 47 5 7 13 7 19 0 19 -5 0 -10 -7 -10 -16
0 -15 -2 -15 -25 0 -34 22 -37 20 -12 -8z"/>
<path d="M1366 2387 c3 -10 9 -15 12 -12 3 3 0 11 -7 18 -10 9 -11 8 -5 -6z"/>
<path d="M1215 2350 c3 -5 11 -10 16 -10 6 0 7 5 4 10 -3 6 -11 10 -16 10 -6
0 -7 -4 -4 -10z"/>
<path d="M1095 2391 c-6 -11 13 -26 22 -17 4 3 1 6 -6 6 -7 0 -9 5 -6 10 3 6
4 10 1 10 -3 0 -7 -4 -11 -9z"/>
<path d="M1590 2396 c0 -2 6 -9 14 -15 11 -9 16 -9 22 0 4 8 3 9 -4 5 -7 -4
-12 -2 -12 3 0 6 -4 11 -10 11 -5 0 -10 -2 -10 -4z"/>
<path d="M1640 2371 c0 -6 4 -13 10 -16 6 -3 7 1 4 9 -7 18 -14 21 -14 7z"/>
<path d="M1670 2336 c0 -8 4 -17 9 -20 5 -4 7 3 4 14 -6 23 -13 26 -13 6z"/>
<path d="M1707 2320 c-3 -11 -3 -20 -1 -20 2 0 8 9 14 20 6 11 7 20 2 20 -6 0
-12 -9 -15 -20z"/>
<path d="M1795 2279 c-4 -6 -5 -12 -2 -15 2 -3 7 2 10 11 7 17 1 20 -8 4z"/>
<path d="M1816 2264 c-8 -20 -8 -24 2 -24 4 0 8 9 9 20 2 24 -3 26 -11 4z"/>
<path d="M1790 2220 c-8 -5 -12 -12 -9 -15 4 -3 12 1 19 10 14 17 11 19 -10 5z"/>
<path d="M1875 2220 c3 -5 8 -10 11 -10 2 0 4 5 4 10 0 6 -5 10 -11 10 -5 0
-7 -4 -4 -10z"/>
<path d="M1896 2172 c-3 -5 1 -9 9 -9 8 0 12 4 9 9 -3 4 -7 8 -9 8 -2 0 -6 -4
-9 -8z"/>
<path d="M1856 2128 c3 -5 10 -6 15 -3 13 9 11 12 -6 12 -8 0 -12 -4 -9 -9z"/>
<path d="M1936 2117 c3 -10 9 -15 12 -12 3 3 0 11 -7 18 -10 9 -11 8 -5 -6z"/>
<path d="M2004 2025 c-4 -8 -10 -12 -15 -9 -5 3 -9 0 -9 -5 0 -16 20 -13 26 4
4 8 11 12 17 8 6 -3 7 -1 3 5 -10 16 -15 15 -22 -3z"/>
<path d="M1176 2232 c-3 -5 1 -9 9 -9 8 0 12 4 9 9 -3 4 -7 8 -9 8 -2 0 -6 -4
-9 -8z"/>
<path d="M336 1792 c-3 -5 1 -9 9 -9 8 0 12 4 9 9 -3 4 -7 8 -9 8 -2 0 -6 -4
-9 -8z"/>
<path d="M536 1692 c-3 -5 1 -9 9 -9 8 0 12 4 9 9 -3 4 -7 8 -9 8 -2 0 -6 -4
-9 -8z"/>
<path d="M773 1595 c0 -8 4 -12 9 -9 5 3 6 10 3 15 -9 13 -12 11 -12 -6z"/>
<path d="M1010 1469 c0 -5 5 -7 10 -4 6 3 10 8 10 11 0 2 -4 4 -10 4 -5 0 -10
-5 -10 -11z"/>
<path d="M1170 2049 c0 -5 5 -7 10 -4 6 3 10 8 10 11 0 2 -4 4 -10 4 -5 0 -10
-5 -10 -11z"/>
<path d="M1221 2044 c0 -11 3 -14 6 -6 3 7 2 16 -1 19 -3 4 -6 -2 -5 -13z"/>
<path d="M1817 1935 c3 -8 9 -12 14 -9 12 7 11 11 -5 17 -10 4 -13 1 -9 -8z"/>
<path d="M656 1831 c-3 -5 2 -15 12 -22 15 -13 16 -12 4 3 -10 13 -10 17 0 21
9 4 9 6 1 6 -6 1 -14 -3 -17 -8z"/>
<path d="M779 1828 c-8 -27 -5 -36 9 -30 10 4 12 7 4 10 -7 2 -10 8 -6 13 3 5
3 9 0 9 -3 0 -6 -1 -7 -2z"/>
<path d="M650 1736 c0 -2 7 -7 16 -10 8 -3 12 -2 9 4 -6 10 -25 14 -25 6z"/>
<path d="M1146 1292 c-3 -5 1 -9 9 -9 8 0 12 4 9 9 -3 4 -7 8 -9 8 -2 0 -6 -4
-9 -8z"/>
<path d="M989 1633 c-13 -16 -12 -17 4 -4 9 7 17 15 17 17 0 8 -8 3 -21 -13z"/>
<path d="M1316 1523 c-6 -14 -5 -15 5 -6 7 7 10 15 7 18 -3 3 -9 -2 -12 -12z"/>
<path d="M1425 1430 c-3 -6 1 -7 9 -4 18 7 21 14 7 14 -6 0 -13 -4 -16 -10z"/>
<path d="M490 1346 c0 -2 8 -10 18 -17 15 -13 16 -12 3 4 -13 16 -21 21 -21
13z"/>
<path d="M906 1235 c-11 -8 -15 -15 -9 -15 6 0 16 7 23 15 16 19 11 19 -14 0z"/>
<path d="M1550 1146 c7 -7 13 -7 20 0 6 6 3 10 -10 10 -13 0 -16 -4 -10 -10z"/>
<path d="M1347 1093 c3 -7 9 -13 13 -13 4 0 10 6 13 13 3 7 -3 13 -13 13 -10
0 -16 -6 -13 -13z"/>
<path d="M1726 1103 c-6 -14 -5 -15 5 -6 7 7 10 15 7 18 -3 3 -9 -2 -12 -12z"/>
<path d="M1894 1059 c-8 -14 14 -19 25 -6 8 10 7 14 -5 14 -8 0 -17 -4 -20 -8z"/>
<path d="M1857 989 c7 -7 15 -10 18 -7 3 3 -2 9 -12 12 -14 6 -15 5 -6 -5z"/>
<path d="M1822 946 c10 -7 14 -17 10 -21 -4 -5 -1 -5 6 -1 19 11 14 23 -10 29
-21 5 -21 5 -6 -7z"/>
<path d="M2016 803 c-6 -14 -5 -15 5 -6 7 7 10 15 7 18 -3 3 -9 -2 -12 -12z"/>
<path d="M1006 1123 c-4 -11 -1 -11 14 -3 24 13 25 17 5 17 -8 0 -16 -6 -19
-14z"/>
<path d="M1230 990 c0 -5 5 -10 11 -10 5 0 7 5 4 10 -3 6 -8 10 -11 10 -2 0
-4 -4 -4 -10z"/>
<path d="M846 1057 c3 -10 9 -15 12 -12 3 3 0 11 -7 18 -10 9 -11 8 -5 -6z"/>
<path d="M1376 975 c14 -21 34 -26 34 -9 0 3 -4 3 -9 -1 -5 -3 -12 4 -16 15
-3 11 -11 20 -16 20 -5 0 -2 -11 7 -25z"/>
<path d="M566 972 c-3 -5 1 -9 9 -9 8 0 12 4 9 9 -3 4 -7 8 -9 8 -2 0 -6 -4
-9 -8z"/>
<path d="M546 728 c3 -5 10 -6 15 -3 13 9 11 12 -6 12 -8 0 -12 -4 -9 -9z"/>
<path d="M1891 871 c-8 -14 -7 -22 2 -29 10 -9 13 -4 12 19 0 34 -1 35 -14 10z"/>
<path d="M1276 857 c3 -10 9 -15 12 -12 3 3 0 11 -7 18 -10 9 -11 8 -5 -6z"/>
<path d="M1200 809 c0 -5 5 -7 10 -4 6 3 10 8 10 11 0 2 -4 4 -10 4 -5 0 -10
-5 -10 -11z"/>
<path d="M1287 789 c7 -7 15 -10 18 -7 3 3 -2 9 -12 12 -14 6 -15 5 -6 -5z"/>
<path d="M1216 692 c-3 -5 1 -9 9 -9 8 0 12 4 9 9 -3 4 -7 8 -9 8 -2 0 -6 -4
-9 -8z"/>
<path d="M1296 462 c-2 -4 -1 -14 4 -22 7 -11 9 -9 7 8 -1 24 -3 26 -11 14z"/>
<path d="M1208 393 c6 -2 9 -10 6 -15 -4 -7 -2 -8 5 -4 13 9 5 26 -12 25 -9 0
-8 -2 1 -6z"/>
<path d="M1210 320 c6 -11 12 -20 14 -20 2 0 2 9 -1 20 -3 11 -9 20 -15 20 -5
0 -4 -9 2 -20z"/>
<path d="M1234 202 c2 -9 9 -18 17 -20 11 -3 11 -1 -1 7 -14 10 -7 16 15 11 6
-1 6 2 2 6 -14 15 -35 12 -33 -4z"/>
<path d="M752 743 c-6 -2 -10 -9 -6 -14 3 -5 1 -9 -5 -9 -5 0 -11 3 -14 8 -2
4 -2 0 1 -8 2 -8 5 -21 5 -27 0 -7 4 -13 9 -13 5 0 8 6 6 13 -1 6 3 22 10 35
7 12 11 22 10 21 -2 0 -9 -3 -16 -6z"/>
<path d="M2207 689 c7 -7 15 -10 18 -7 3 3 -2 9 -12 12 -14 6 -15 5 -6 -5z"/>
<path d="M870 2392 c0 -6 -9 -14 -20 -17 -11 -4 -17 -11 -14 -17 4 -6 15 -2
27 11 12 11 18 24 14 27 -4 4 -7 2 -7 -4z"/>
<path d="M808 2206 c-10 -7 -15 -16 -11 -19 3 -4 2 -7 -4 -7 -6 0 -14 -7 -17
-16 -3 -8 -2 -12 4 -9 9 6 15 -8 11 -29 -1 -5 6 -18 16 -30 16 -19 16 -19 1
-7 -12 9 -18 10 -18 2 0 -6 -7 -11 -15 -11 -8 0 -14 6 -12 12 1 7 -8 14 -21
16 -12 2 -20 7 -17 12 3 5 1 11 -4 14 -4 3 -8 -4 -7 -17 0 -12 -4 -21 -10 -20
-7 1 -11 -17 -11 -46 -1 -37 4 -50 19 -60 11 -7 17 -8 14 -2 -4 5 -2 13 4 16
6 4 10 3 9 -2 -4 -22 3 -32 20 -28 14 3 18 -1 14 -16 -5 -17 1 -21 23 -18 4 0
10 -5 15 -13 7 -11 10 -10 21 1 10 10 10 12 1 7 -25 -14 -13 9 17 32 16 13 27
29 24 35 -4 12 22 43 61 73 11 9 14 12 7 9 -11 -6 -11 -3 -1 13 7 12 17 18 21
16 4 -3 8 0 8 7 0 7 -8 9 -21 6 -16 -4 -18 -3 -9 9 9 10 8 17 -3 29 -9 8 -21
15 -27 15 -7 0 -10 6 -7 13 3 8 -1 14 -9 14 -7 0 -11 -4 -8 -9 3 -4 -11 -8
-31 -8 -20 0 -34 4 -31 9 3 5 15 7 26 4 11 -3 20 0 20 6 0 15 -41 13 -62 -3z
m52 -47 c0 -5 -4 -9 -8 -9 -5 0 -9 7 -9 15 0 8 4 12 9 9 4 -3 8 -9 8 -15z
m-126 -83 c-21 -15 -30 -14 -19 3 3 6 14 11 23 11 13 0 13 -2 -4 -14z m131
-26 c4 -6 12 -7 18 -3 7 3 4 -3 -6 -15 -11 -11 -16 -25 -13 -31 4 -5 2 -12 -2
-15 -5 -3 -8 9 -8 27 1 18 -3 35 -8 39 -8 5 -7 8 1 8 6 0 15 -5 18 -10z m-41
-75 c-4 -8 -13 -15 -22 -15 -13 0 -12 3 4 15 24 18 25 18 18 0z"/>
<path d="M975 2210 c3 -5 8 -10 11 -10 2 0 4 5 4 10 0 6 -5 10 -11 10 -5 0 -7
-4 -4 -10z"/>
<path d="M955 2181 c-3 -5 -2 -12 3 -15 5 -3 9 1 9 9 0 17 -3 19 -12 6z"/>
<path d="M1002 2170 c7 -11 17 -20 22 -20 5 0 1 9 -9 20 -10 11 -20 20 -22 20
-2 0 2 -9 9 -20z"/>
<path d="M976 2153 c-6 -14 -5 -15 5 -6 7 7 10 15 7 18 -3 3 -9 -2 -12 -12z"/>
<path d="M635 2030 c-3 -5 -1 -10 4 -10 6 0 11 5 11 10 0 6 -2 10 -4 10 -3 0
-8 -4 -11 -10z"/>
<path d="M425 2009 c-4 -6 -5 -12 -2 -15 2 -3 7 2 10 11 7 17 1 20 -8 4z"/>
<path d="M656 2012 c-3 -5 1 -9 9 -9 8 0 12 4 9 9 -3 4 -7 8 -9 8 -2 0 -6 -4
-9 -8z"/>
<path d="M686 1972 c-3 -5 1 -9 9 -9 8 0 12 4 9 9 -3 4 -7 8 -9 8 -2 0 -6 -4
-9 -8z"/>
<path d="M2227 1919 c7 -7 15 -10 18 -7 3 3 -2 9 -12 12 -14 6 -15 5 -6 -5z"/>
<path d="M410 1870 c0 -5 5 -10 11 -10 5 0 7 5 4 10 -3 6 -8 10 -11 10 -2 0
-4 -4 -4 -10z"/>
<path d="M2055 1650 c3 -5 8 -10 11 -10 2 0 4 5 4 10 0 6 -5 10 -11 10 -5 0
-7 -4 -4 -10z"/>
<path d="M1690 1490 c0 -5 5 -10 11 -10 5 0 7 5 4 10 -3 6 -8 10 -11 10 -2 0
-4 -4 -4 -10z"/>
<path d="M1916 1207 c3 -10 9 -15 12 -12 3 3 0 11 -7 18 -10 9 -11 8 -5 -6z"/>
<path d="M465 1170 c-3 -6 1 -7 9 -4 18 7 21 14 7 14 -6 0 -13 -4 -16 -10z"/>
<path d="M2160 1096 c0 -2 7 -7 16 -10 8 -3 12 -2 9 4 -6 10 -25 14 -25 6z"/>
<path d="M2150 1019 c0 -5 5 -7 10 -4 6 3 10 8 10 11 0 2 -4 4 -10 4 -5 0 -10
-5 -10 -11z"/>
<path d="M953 815 c0 -8 4 -12 9 -9 5 3 6 10 3 15 -9 13 -12 11 -12 -6z"/>
<path d="M1016 768 c3 -5 10 -6 15 -3 13 9 11 12 -6 12 -8 0 -12 -4 -9 -9z"/>
<path d="M985 750 c-3 -6 1 -7 9 -4 18 7 21 14 7 14 -6 0 -13 -4 -16 -10z"/>
<path d="M930 725 c10 -12 10 -15 0 -15 -8 0 -11 -3 -7 -6 3 -3 10 -3 16 0 12
8 3 36 -11 36 -6 0 -5 -6 2 -15z"/>
<path d="M393 648 c1 -32 6 -58 10 -58 5 0 5 -6 0 -12 -11 -18 -13 -39 -3 -33
5 3 10 -1 13 -7 2 -7 3 19 2 57 -1 39 -6 79 -13 90 -9 16 -10 9 -9 -37z"/>
<path d="M653 657 c0 -8 6 -14 14 -14 9 0 10 4 2 14 -6 7 -12 13 -14 13 -1 0
-2 -6 -2 -13z"/>
<path d="M2010 651 c0 -6 4 -12 8 -15 5 -3 9 1 9 9 0 8 -4 15 -9 15 -4 0 -8
-4 -8 -9z"/>
<path d="M2045 630 c-3 -6 1 -7 9 -4 18 7 21 14 7 14 -6 0 -13 -4 -16 -10z"/>
<path d="M935 551 c-3 -5 -2 -12 3 -15 5 -3 9 1 9 9 0 17 -3 19 -12 6z"/>
<path d="M730 530 c0 -5 5 -10 11 -10 5 0 7 5 4 10 -3 6 -8 10 -11 10 -2 0 -4
-4 -4 -10z"/>
<path d="M1030 329 c0 -5 -4 -7 -10 -4 -14 9 -12 -1 3 -13 10 -8 13 -6 14 9 1
10 0 19 -3 19 -2 0 -4 -5 -4 -11z"/>
<path d="M1655 259 c-4 -6 -5 -12 -2 -15 2 -3 7 2 10 11 7 17 1 20 -8 4z"/>
<path d="M1085 170 c3 -5 8 -10 11 -10 2 0 4 5 4 10 0 6 -5 10 -11 10 -5 0 -7
-4 -4 -10z"/>
</g>
</svg>
